<svg version="1" xmlns="http://www.w3.org/2000/svg" width="480" height="480" viewBox="0 0 360.000000 360.000000"><path d="M103.2 47.1L27 91.2l.2 88.6.3 88.7 76.3 44.3 76.2 44.3 76.3-44.3 76.2-44.3.3-88.7.2-88.6-76.4-44.1C214.6 22.8 180.1 3 179.9 3c-.2.1-34.7 19.9-76.7 44.1zm64.2 60.1c2 2.3 3.6 4.5 3.6 4.8 0 .4-.9 1.5-1.9 2.4-1.9 1.7-2.1 1.6-5.5-5.3-2-3.9-3.6-7.3-3.6-7.6 0-1.3 4.1 1.8 7.4 5.7zm29.1 1.8l-3.7 7.3-2-2.1-2.1-2 2.2-3c2.4-3.4 8.1-8.5 8.8-7.8.2.2-1.2 3.7-3.2 7.6zm-58.1.8c4.9 2.7 15 12.8 17.6 17.6 1.2 2.4 1.2 2.9-.7 4.8-1.2 1.1-2.6 1.7-3.2 1.4-.6-.4-3.8-4.2-7.1-8.5-3.2-4.3-8.7-10.4-12.2-13.6l-6.3-5.7 3.5.7c1.9.4 5.7 1.9 8.4 3.3zm88.8 1.8c-3.5 3.1-9 9.2-12.2 13.5-3.3 4.3-6.5 8.1-7.1 8.5-.6.3-2-.3-3.2-1.4-1.9-1.9-1.9-2.4-.7-4.7 2.2-4.1 11.7-14.1 15.7-16.6 3.9-2.4 9.9-4.8 12.3-4.9.8 0-1.3 2.5-4.8 5.6zm-41.6 3.9c3.7 2.2 6.4 5.1 6.4 6.8 0 .2-2.7 0-6-.5-3.6-.6-8.4-.6-12 0-3.5.5-6 .5-6 0 0-2.4 8.9-8.6 12.4-8.8.5 0 2.9 1.1 5.2 2.5zm-101.6.6c4.1 1.1 15.2 5.5 24.5 9.8 9.4 4.3 22.3 10 28.7 12.6l11.7 4.8-.6 3.1c-.3 1.7-.8 3.4-1.2 3.7-.3.3-5.8 0-12.1-.8s-18.7-1.5-27.5-1.6c-14.7-.2-16.4 0-20.5 2-2.5 1.2-5.2 2.8-6.1 3.4-4.8 3.6-26.9-21.6-26.9-30.6 0-3.1 2.7-6.6 6-7.8 3.7-1.3 16.9-.6 24 1.4zm219.4.8c3.6 3.4 3.4 7.5-.8 14.4-7.7 12.7-20.1 24.3-23.5 21.8-.9-.6-3.6-2.2-6.1-3.4-4.1-2-5.8-2.2-20.5-2-8.8.1-21.2.8-27.5 1.6-6.3.8-11.8 1.1-12.1.8-.4-.3-.9-2-1.2-3.7l-.6-3.1 11.7-4.8c6.4-2.6 18.9-8.1 27.7-12.2 21.9-10.1 29.5-12.4 41.2-12 8.1.2 9.4.5 11.7 2.6zm-111.8 10c5.8 2.6 11.1 7.7 14.2 13.5 2.1 4.2 2.6 6.5 2.7 12.6 0 10.3-1.3 12.7-10 17-6.7 3.4-7.3 3.5-18.5 3.5s-11.8-.1-18.5-3.5c-8.7-4.3-10-6.7-10-17 .1-6.1.6-8.4 2.7-12.6 7.2-13.8 23.4-19.7 37.4-13.5zm-63.4 25.6c8.4.9 16.2 2 17.4 2.4 2.5 1.1 4.1 9 2.1 10.3-3 1.9-18.8 7.1-24.4 8-12.2 2.1-25.5-2-35-10.7-5.8-5.2-5.3-7.1 2.3-9.7 6.3-2.2 17.7-2.3 37.6-.3zm141.2.3c7.6 2.6 8.1 4.5 2.3 9.7-9.5 8.7-22.8 12.8-34.9 10.7-5.7-.9-21.5-6.1-24.5-8-2-1.3-.4-9.2 2.1-10.3 3.1-1.4 27.4-3.7 39.6-3.7 7.5-.1 11.9.4 15.4 1.6zm-111.9 19.4c14.2 7.7 30.8 7.7 45 0 3.2-1.8 6.2-3.2 6.6-3.2 1.4 0 6.9 19.7 6.9 24.9 0 2.3-10.7 7.4-20 9.5-8.3 2-23.7 2-32 0-9.3-2.1-20-7.2-20-9.5 0-5.2 5.5-24.9 6.9-24.9.4 0 3.4 1.4 6.6 3.2zm-15.9 10.9c-2 8.9-2.8 21.3-1.8 28.1 1.7 11.6-5 29-15.2 39.5-3.4 3.5-6.7 6.3-7.4 6.3-.6 0 .8-3.9 3.3-8.8 5-9.9 7.9-20.8 9.5-36.2 1.4-12.5 3.4-21.9 5.6-26.3 2.1-4 6.5-10 7-9.4.3.2-.2 3.3-1 6.8zm81.1-.4c3.6 6.3 5.2 12.1 6.9 26.8 2.2 18.4 4.8 28.6 9.9 38.7 2.5 4.9 3.9 8.8 3.3 8.8-.7 0-4-2.8-7.4-6.3-10.2-10.5-16.9-27.9-15.2-39.5 1-6.7.2-19.2-1.8-28-.8-3.5-1.4-6.6-1.4-6.9 0-1.3 3.3 2.4 5.7 6.4zm-67.2 22.5c8.8 3.2 9.4 3.3 24.5 3.3s15.7-.1 24.5-3.3c5-1.8 9.8-3.6 10.8-3.9 1.6-.5 1.7 0 1.1 6.3-.4 3.8-1.2 8.8-1.9 11.3-.9 3.9-1.6 4.6-5 5.8-17.1 6-41.9 6-59 0-3.4-1.2-4.1-1.9-5-5.8-.7-2.5-1.5-7.5-1.9-11.3-.6-6.3-.5-6.8 1.1-6.3 1 .3 5.9 2.1 10.8 3.9zm4.2 26.4c13.8 3 39.2 1.8 50-2.3 1.3-.5 1.1.3-.8 3.6-3.5 6.3-10.3 12.8-20.2 19.4l-8.7 5.9-8.7-5.9c-9.9-6.6-16.7-13.1-20.2-19.4-1.9-3.3-2.1-4.1-.8-3.6.9.3 5.1 1.4 9.4 2.3z"/></svg>