<?xml version="1.0" encoding="utf-8"?>
<!-- Generator: Adobe Illustrator 15.0.2, SVG Export Plug-In . SVG Version: 6.00 Build 0)  -->
<!DOCTYPE svg PUBLIC "-//W3C//DTD SVG 1.1//EN" "http://www.w3.org/Graphics/SVG/1.1/DTD/svg11.dtd">
<svg version="1.1" id="Layer_1" xmlns="http://www.w3.org/2000/svg" xmlns:xlink="http://www.w3.org/1999/xlink" x="0px" y="0px"
	 width="534.527px" height="534.445px" viewBox="0 0 534.527 534.445" enable-background="new 0 0 534.527 534.445"
	 xml:space="preserve">
<g opacity="0.7">
	<path fill-rule="evenodd" clip-rule="evenodd" fill="#FFFFFF" d="M263.313,0.159c10.462-0.498,21.379,0.25,30.664,1.197
		c29.78,3.038,56.769,10.899,79.873,20.791c15.629,6.691,30.047,14.793,43.377,23.932c40.016,27.435,71.48,63.262,92.588,109.34
		c10.531,22.989,18.807,48.662,22.438,78.527c1.141,9.4,1.639,19.192,2.094,29.167c0.898,19.747-1.643,39.731-5.385,58.335
		c-7.492,37.248-21.822,67.891-39.787,94.831c-8.979,13.462-19.063,26.242-30.064,37.244
		c-33.885,33.884-73.865,59.794-128.487,73.441c-18.133,4.53-38.221,7.478-58.484,7.479c-21.977,0.001-41.271-1.771-59.83-5.685
		c-45.476-9.588-83.477-29.289-113.827-54.445c-42.924-35.578-75.153-81.43-90.942-144.64c-4.498-18.008-7.064-38.633-7.479-58.035
		c-0.918-42.946,8.904-80.71,22.287-111.135c6.889-15.662,15.071-30.346,23.932-43.377c27.172-39.961,63.637-71.544,109.19-92.737
		c23.079-10.737,48.87-18.402,78.677-22.287C243.506,0.884,253.179,0.642,263.313,0.159z M388.658,71.507
		c-27.111,42.697-53.917,85.803-80.472,128.635c-0.396,0.639-1.34,1.323-1.047,2.244c21.141,0,42.281,0,63.419,0
		c0,10.72,0,21.439,0,32.159c-20.641,0-41.282,0-61.923,0c0,7.877,0,15.755,0,23.633c8.146-5.727,21.873-7.096,33.056-4.487
		c10.893,2.541,18.629,8.933,24.082,17.202c5.561,8.432,7.744,19.618,8.076,32.158c0.338,12.702-1.781,24.896-7.328,33.355
		c-5.422,8.269-12.732,14.814-22.586,18.548c-10.038,3.802-23.339,4.708-35.3,1.795c-21.684-5.282-34.17-20.963-35.3-46.817
		c11.916,0,23.832,0,35.748,0c0.824,10.265,5.68,17.044,16.005,16.304c10.005-0.718,12.65-9.258,13.013-19.445
		c0.357-10.029-0.986-20.247-8.675-23.334c-4.255-1.708-10.042-1.359-13.611,0.599c-3.596,1.973-5.267,5.656-7.03,9.424
		c-10.869,0-21.738,0-32.607,0c-0.001-27.565,0.001-56.864,0-84.361c-0.001-9.14-1.594-16.665-4.937-23.184
		c-6.233-12.161-17.436-20.449-32.607-23.633c-15.669-3.289-32.405,0.435-43.527,8.525c-10.514,7.649-18.099,20.235-18.099,37.843
		c0,18.487,0,36.922,0,56.241c0,9.64,0.55,17.279,3.291,24.231c7.713,19.564,26.568,31.132,54.146,28.719
		c-33.93,54.517-68.123,108.777-102.011,163.337c26.328,16.303,56.282,29.364,92.438,35.449
		c36.001,6.059,74.951,4.018,109.639-5.534c33.2-9.143,61.456-23.535,85.858-42.181c24.299-18.568,45.092-41.271,61.025-67.01
		c16.262-26.268,29.301-56.338,35.301-92.588c3.064-18.512,4.275-38.52,2.992-57.138c-1.277-18.519-4.281-36.846-9.125-53.698
		c-18.938-65.894-58.107-113.112-109.938-146.136C396.439,58.544,392.697,65.146,388.658,71.507z M64.228,162.749
		c0,30.213,0,60.429,0,90.643c10.869,0,21.738,0,32.607,0c1.725-4.394,3.824-7.958,7.628-9.722
		c4.389-2.036,9.415-1.772,13.013-0.299c7.451,3.05,8.84,12.668,8.675,22.437c-0.194,11.5-3.568,21.769-16.902,20.342
		c-8.141-0.87-11.383-7.861-12.265-16.303c-10.695,0.248-25.492,0.245-35.599,0c0.994,25.721,13.472,41.249,35.3,46.667
		c11.936,2.963,24.757,2.237,35.001-1.496c9.676-3.525,17.592-10.475,22.885-18.547c5.615-8.563,7.18-20.822,7.18-33.206
		c0-13.029-2.621-24.012-8.077-32.308c-5.613-8.536-12.889-14.493-24.082-17.201c-10.976-2.657-24.877-1.407-33.056,4.487
		c0.1-7.877-0.2-16.154,0.149-23.782c20.592,0,41.183,0,61.775,0c0-10.72,0-21.439,0-32.159c-31.362,0-62.722,0-94.083,0
		C64.203,162.325,64.215,162.536,64.228,162.749z"/>
	<path fill-rule="evenodd" clip-rule="evenodd" fill="#FFFFFF" d="M225.321,193.262c7.38-0.77,13.223,3.776,14.958,10.321
		c1.169,4.408,0.598,12.219,0.599,18.547c0,13.934-0.001,24.735,0,38.89c0,12.099,0.197,18.79-6.432,23.035
		c-2.357,1.51-4.317,2.111-7.778,2.094c-6.393-0.032-11.274-3.438-13.163-9.124c-1.372-4.129-0.897-10.059-0.897-17.201
		c0-11.308,0-25.137,0-36.198c0-6.777-0.97-15.596,0.897-21.09C215.223,197.479,219.097,193.911,225.321,193.262z"/>
</g>
<path opacity="0.7" fill-rule="evenodd" clip-rule="evenodd" fill="#FFFFFF" d="M435.474,201.189
	c20.73-1.248,35.986,7.584,44.725,19.744c4.547,6.329,7.537,14.56,8.227,24.082c0.66,9.115,0.148,21.694,0.148,31.561
	c0.002,10.47,0,21.919,0,32.309c0.002,29.647-18.633,47.611-46.068,49.359c-20.938,1.334-36.52-7.498-45.023-19.444
	c-4.377-6.152-7.689-14.347-8.375-23.633c-0.67-9.054-0.15-21.955-0.15-31.86c0-11.023,0-22.158,0-32.308
	c-0.002-25.443,12.367-41.107,32.758-47.416C425.998,202.257,430.796,201.471,435.474,201.189z M426.201,240.977
	c-2.65,5.742-1.496,15.421-1.496,23.184c0,11.266,0,23.602,0,35.3c0,7.61-0.482,14.8,1.496,19.146
	c4.674,10.267,20.965,9.975,25.279-0.448c1.766-4.268,1.346-12.374,1.346-18.697c0-14.107,0-26.184,0-40.086
	c0-7.376,0.408-14.027-1.496-18.249c-2.414-5.352-8.363-8.254-13.611-7.778C432.068,233.861,428.263,236.512,426.201,240.977z"/>
<path fill-rule="evenodd" clip-rule="evenodd" fill="#FFFFFF" d="M206.773,445.447c6.582,0,13.163,0,19.744,0
	c0,2.792,0,5.584,0,8.376c-10.072,0.249-21.189,0.249-31.262,0c0.459-2.286-0.612-5.58,0-8.077c0.384-1.565,4.222-5.074,5.385-6.432
	c3.78-4.41,7.011-8.214,10.77-12.564c1.813-2.098,4.134-4.274,5.086-6.581c1.153-2.796,0.514-6.65-1.496-8.227
	c-3.8-2.98-11.186-0.674-10.321,5.385c-3.093-0.098-6.578,0.196-9.423-0.149c0.429-9.05,5.753-14.345,14.808-14.958
	c9.511-0.645,16.454,5.362,16.454,14.958c0,2.094-0.557,4.525-1.346,6.132c-1.992,4.053-6.037,7.622-9.125,11.219
	C212.76,438.358,209.66,442.097,206.773,445.447z"/>
<path fill-rule="evenodd" clip-rule="evenodd" fill="#FFFFFF" d="M247.159,402.369c8.555-0.695,15.741,4.69,16.603,13.014
	c0.456,4.396,0,8.676,0,13.611c0,4.514,0.503,9.578-0.149,13.312c-2.551,14.601-23.309,15.451-29.167,4.487
	c-2.367-4.429-1.795-11.401-1.795-18.996c0-5.993-0.461-12.406,0.897-16.154C235.655,405.83,240.974,402.872,247.159,402.369z
	 M242.073,419.719c0,4.271,0,10.837,0,14.958c0,2.045-0.325,5.322,0.299,7.18c1.051,3.125,5.294,4.969,8.526,3.59
	c3.312-1.414,3.44-4.9,3.44-9.124c0-6.271,0.213-13.247,0-18.996c-0.161-4.342-2.853-7.143-7.18-6.432
	C242.648,411.635,242.074,414.907,242.073,419.719z"/>
<path fill-rule="evenodd" clip-rule="evenodd" fill="#FFFFFF" d="M281.711,445.447c6.581,0,13.163,0,19.744,0
	c0,2.792,0,5.584,0,8.376c-9.481,0.346-20.885,0.053-31.112,0.149c0.165-1.609-0.7-5.568-0.149-8.077
	c0.178-0.808,1.618-2.369,2.543-3.439c4.596-5.319,9.157-10.336,13.761-15.706c1.81-2.11,4.246-4.514,5.086-6.73
	c1.369-3.614-0.154-7.667-2.842-8.825c-4.73-2.038-9.536,1.168-9.124,6.133c-3.094-0.098-6.579,0.196-9.424-0.149
	c0.472-8.888,5.694-14.389,14.658-14.958c9.861-0.627,16.271,5.225,16.604,14.359c0.266,7.327-4.686,11.262-8.526,15.705
	C289.034,436.792,285.36,441.338,281.711,445.447z"/>
<path fill-rule="evenodd" clip-rule="evenodd" fill="#FFFFFF" d="M322.097,402.369c7.881-0.568,14.368,3.948,16.155,10.471
	c1.172,4.283,0.598,11.636,0.598,16.453c0,5.373,0.369,11.992-1.047,15.855c-4.788,13.05-25.559,11.651-29.467-1.048
	c-1.193-3.88-0.747-9.615-0.747-14.957c-0.001-8.46-0.571-15.732,2.393-20.343C312.255,405.264,316.587,402.766,322.097,402.369z
	 M317.011,420.168c0,2.188,0,4.779,0,7.628c0,4.431-0.871,11.401,0.599,14.659c1.636,3.626,7.122,4.564,9.872,1.944
	c2.616-2.493,1.944-10.941,1.944-16.005c-0.001-4.903,0.742-13.563-1.944-16.154c-1.36-1.312-3.897-1.591-5.385-1.346
	C317.519,411.646,317.011,415.229,317.011,420.168z"/>
</svg>
