<svg id="Layer_1" data-name="Layer 1" xmlns="http://www.w3.org/2000/svg" viewBox="0 0 557 268"><defs><style>.cls-1{fill:#fff;}.cls-2{fill:#711f8e;}</style></defs><title>conf-logo-2017_svg</title><path class="cls-1" d="M16.86,128.83V17.18H47.18V128.83Z"/><path class="cls-1" d="M189.51,70.63q0,27.95-15.39,43.07t-43.26,15.12H94.74V17.18h38.64q26.88,0,41.51,13.75T189.51,70.63ZM158.2,71.7q0-15.35-6.07-22.76t-18.44-7.41h-8.78v62.54h6.72q13.75,0,20.16-8T158.2,71.7Z"/><path class="cls-1" d="M299.23,128.83H232.95V17.18h66.28V41.39H263.11V59h33.45V83.16H263.11v21.08h36.12Z"/><path class="cls-1" d="M410.71,128.83l-5.5-20.92H368.94l-5.65,20.92H330.15l36.43-112.1h40.25l36.88,112.1ZM399,83.16l-4.81-18.33q-1.68-6.11-4.09-15.81t-3.17-13.9Q386.2,39,384.18,48t-9,35.21Z"/><path class="cls-1" d="M552.2,94.92a32.94,32.94,0,0,1-5.27,18.44,34.51,34.51,0,0,1-15.2,12.52q-9.93,4.47-23.29,4.47a94.32,94.32,0,0,1-18.71-1.56A69.43,69.43,0,0,1,474,123.33V96.45A89.7,89.7,0,0,0,492,103.36a66.88,66.88,0,0,0,17.11,2.48q6.72,0,9.85-2.33a7.16,7.16,0,0,0,3.13-6,6.6,6.6,0,0,0-1.26-4,14.69,14.69,0,0,0-4-3.47q-2.79-1.76-14.85-7.18-10.92-5-16.38-9.62a29.54,29.54,0,0,1-8.1-10.69,35.5,35.5,0,0,1-2.63-14.28q0-15.42,11.22-24.06t30.85-8.63q17.34,0,35.36,8L543,46.88q-15.66-7.18-27-7.18-5.88,0-8.55,2.06a6.23,6.23,0,0,0-2.67,5.12q0,3.28,3.4,5.88t18.44,9.47q14.43,6.49,20,13.94T552.2,94.92Z"/><path class="cls-2" d="M12.25,245.69q-7.45,0-7.45-8.18a8.72,8.72,0,0,1,2-6.22,7.6,7.6,0,0,1,5.81-2.15,11.08,11.08,0,0,1,5,1.08l-1.28,3.37q-1-.41-1.91-.68a6.17,6.17,0,0,0-1.77-.26q-3.4,0-3.4,4.82t3.4,4.68a7.74,7.74,0,0,0,2.33-.34,8.4,8.4,0,0,0,2.14-1v3.72a7,7,0,0,1-2.13.93A12,12,0,0,1,12.25,245.69Z"/><path class="cls-2" d="M33.54,237.4a8.57,8.57,0,0,1-2.06,6.09,7.45,7.45,0,0,1-5.72,2.2,8,8,0,0,1-4.05-1,6.7,6.7,0,0,1-2.7-2.89,9.71,9.71,0,0,1-.94-4.4,8.53,8.53,0,0,1,2-6.08,7.5,7.5,0,0,1,5.74-2.17,8,8,0,0,1,4.05,1A6.67,6.67,0,0,1,32.6,233,9.62,9.62,0,0,1,33.54,237.4Zm-11,0a6.69,6.69,0,0,0,.78,3.58,2.78,2.78,0,0,0,2.53,1.21,2.74,2.74,0,0,0,2.5-1.21,6.79,6.79,0,0,0,.76-3.59,6.59,6.59,0,0,0-.77-3.55,2.79,2.79,0,0,0-2.53-1.18,2.78,2.78,0,0,0-2.51,1.18A6.58,6.58,0,0,0,22.51,237.4Z"/><path class="cls-2" d="M34,239.35v-3.57h7.66v3.57Z"/><path class="cls-2" d="M57.54,237.4a8.57,8.57,0,0,1-2.06,6.09,7.45,7.45,0,0,1-5.72,2.2,8,8,0,0,1-4.05-1,6.7,6.7,0,0,1-2.7-2.89,9.71,9.71,0,0,1-.94-4.4,8.53,8.53,0,0,1,2-6.08,7.5,7.5,0,0,1,5.74-2.17,8,8,0,0,1,4.05,1A6.67,6.67,0,0,1,56.6,233,9.62,9.62,0,0,1,57.54,237.4Zm-11,0a6.69,6.69,0,0,0,.78,3.58,2.78,2.78,0,0,0,2.53,1.21,2.74,2.74,0,0,0,2.5-1.21,6.79,6.79,0,0,0,.76-3.59,6.59,6.59,0,0,0-.77-3.55,3.28,3.28,0,0,0-5,0A6.58,6.58,0,0,0,46.51,237.4Z"/><path class="cls-2" d="M68.14,245.69a5.29,5.29,0,0,1-4.41-2h-.23q.23,2,.23,2.31v6.47H59.38v-23h3.54l.61,2.07h.2a5,5,0,0,1,4.52-2.37,5.18,5.18,0,0,1,4.42,2.18,10.1,10.1,0,0,1,1.6,6.07,12,12,0,0,1-.75,4.44,6.23,6.23,0,0,1-2.13,2.87A5.47,5.47,0,0,1,68.14,245.69Zm-1.28-13.06a2.75,2.75,0,0,0-2.35,1,5.7,5.7,0,0,0-.77,3.28v.47a6.73,6.73,0,0,0,.76,3.68,2.73,2.73,0,0,0,2.42,1.11q2.93,0,2.93-4.82a6.89,6.89,0,0,0-.72-3.53A2.46,2.46,0,0,0,66.86,232.63Z"/><path class="cls-2" d="M83.35,245.69a8.24,8.24,0,0,1-6-2.13,8.05,8.05,0,0,1-2.17-6,8.86,8.86,0,0,1,2-6.2,7.14,7.14,0,0,1,5.54-2.19A7,7,0,0,1,88,231.07a7.29,7.29,0,0,1,1.88,5.32v2.11H79.56a4.19,4.19,0,0,0,1.1,2.9,3.87,3.87,0,0,0,2.88,1,12,12,0,0,0,2.73-.3,13.62,13.62,0,0,0,2.68-1v3.37a10.2,10.2,0,0,1-2.44.85A15.37,15.37,0,0,1,83.35,245.69Zm-.61-13.44a2.76,2.76,0,0,0-2.17.88,4.06,4.06,0,0,0-.9,2.49h6.11a3.63,3.63,0,0,0-.84-2.49A2.85,2.85,0,0,0,82.73,232.24Z"/><path class="cls-2" d="M100.54,229.15a7,7,0,0,1,1.47.13l-.33,4.08a5,5,0,0,0-1.28-.14,4.62,4.62,0,0,0-3.25,1.07,3.87,3.87,0,0,0-1.16,3v8.12H91.64v-16h3.3l.64,2.68h.21a6,6,0,0,1,2-2.16A4.94,4.94,0,0,1,100.54,229.15Z"/><path class="cls-2" d="M113.29,245.4l-.84-2.17h-.11a6.43,6.43,0,0,1-2.26,1.92,7.31,7.31,0,0,1-3,.54,4.9,4.9,0,0,1-3.62-1.31,5,5,0,0,1-1.32-3.74,4.21,4.21,0,0,1,1.78-3.75,10.3,10.3,0,0,1,5.36-1.33l2.77-.09v-.7a2.17,2.17,0,0,0-2.48-2.43,11.32,11.32,0,0,0-4.5,1.16l-1.44-2.94a13,13,0,0,1,6.11-1.44,7.61,7.61,0,0,1,4.92,1.4,5.17,5.17,0,0,1,1.71,4.25V245.4ZM112,238l-1.68.06a5.39,5.39,0,0,0-2.83.69,2.15,2.15,0,0,0-.93,1.91q0,1.84,2.11,1.84a3.35,3.35,0,0,0,2.42-.87,3.06,3.06,0,0,0,.91-2.31Z"/><path class="cls-2" d="M125.78,242.22a9.43,9.43,0,0,0,2.74-.5V245a9.76,9.76,0,0,1-4,.73,4.89,4.89,0,0,1-3.8-1.32,5.75,5.75,0,0,1-1.19-4v-7.69h-2.08v-1.84l2.4-1.46,1.26-3.37h2.78v3.4h4.47v3.27h-4.47v7.69a1.7,1.7,0,0,0,.52,1.37A2.06,2.06,0,0,0,125.78,242.22Z"/><path class="cls-2" d="M129.81,225.32q0-2.13,2.37-2.13t2.37,2.13a2.08,2.08,0,0,1-.59,1.58,2.49,2.49,0,0,1-1.78.56Q129.81,227.46,129.81,225.32Zm4.54,20.08H130v-16h4.35Z"/><path class="cls-2" d="M141,245.4l-6.08-16h4.55l3.08,9.09a16.22,16.22,0,0,1,.64,3.27h.09a14.2,14.2,0,0,1,.64-3.27l3.07-9.09h4.55l-6.08,16Z"/><path class="cls-2" d="M159.25,245.69a8.24,8.24,0,0,1-6-2.13,8.05,8.05,0,0,1-2.17-6,8.86,8.86,0,0,1,2-6.2,7.14,7.14,0,0,1,5.54-2.19,7,7,0,0,1,5.27,1.93,7.29,7.29,0,0,1,1.88,5.32v2.11H155.47a4.19,4.19,0,0,0,1.1,2.9,3.87,3.87,0,0,0,2.88,1,12,12,0,0,0,2.73-.3,13.62,13.62,0,0,0,2.68-1v3.37a10.2,10.2,0,0,1-2.44.85A15.37,15.37,0,0,1,159.25,245.69Zm-.61-13.44a2.76,2.76,0,0,0-2.17.88,4.06,4.06,0,0,0-.9,2.49h6.11a3.63,3.63,0,0,0-.84-2.49A2.85,2.85,0,0,0,158.64,232.24Z"/><path class="cls-2" d="M182.15,245.69a5.29,5.29,0,0,1-4.41-2h-.23q.23,2,.23,2.31v6.47h-4.35v-23h3.54l.61,2.07h.2a5,5,0,0,1,4.52-2.37,5.18,5.18,0,0,1,4.42,2.18,10.1,10.1,0,0,1,1.6,6.07,12,12,0,0,1-.75,4.44,6.23,6.23,0,0,1-2.13,2.87A5.47,5.47,0,0,1,182.15,245.69Zm-1.28-13.06a2.75,2.75,0,0,0-2.35,1,5.7,5.7,0,0,0-.77,3.28v.47a6.72,6.72,0,0,0,.76,3.68,2.73,2.73,0,0,0,2.42,1.11q2.93,0,2.93-4.82a6.89,6.89,0,0,0-.72-3.53A2.46,2.46,0,0,0,180.87,232.63Z"/><path class="cls-2" d="M200.26,245.4l-.84-2.17h-.11a6.43,6.43,0,0,1-2.26,1.92,7.31,7.31,0,0,1-3,.54,4.9,4.9,0,0,1-3.62-1.31,5,5,0,0,1-1.32-3.74,4.21,4.21,0,0,1,1.78-3.75,10.3,10.3,0,0,1,5.36-1.33l2.77-.09v-.7a2.17,2.17,0,0,0-2.48-2.43,11.32,11.32,0,0,0-4.5,1.16l-1.44-2.94a13,13,0,0,1,6.11-1.44,7.61,7.61,0,0,1,4.92,1.4,5.17,5.17,0,0,1,1.71,4.25V245.4ZM199,238l-1.68.06a5.39,5.39,0,0,0-2.83.69,2.15,2.15,0,0,0-.93,1.91q0,1.84,2.11,1.84a3.35,3.35,0,0,0,2.42-.87,3.06,3.06,0,0,0,.91-2.31Z"/><path class="cls-2" d="M214.94,229.15a7,7,0,0,1,1.47.13l-.33,4.08a5,5,0,0,0-1.28-.14,4.62,4.62,0,0,0-3.25,1.07,3.87,3.87,0,0,0-1.16,3v8.12H206v-16h3.3l.64,2.68h.21a6,6,0,0,1,2-2.16A4.94,4.94,0,0,1,214.94,229.15Z"/><path class="cls-2" d="M224.27,242.22a9.43,9.43,0,0,0,2.74-.5V245a9.76,9.76,0,0,1-4,.73,4.89,4.89,0,0,1-3.8-1.32,5.75,5.75,0,0,1-1.19-4v-7.69h-2.08v-1.84l2.4-1.46,1.26-3.37h2.78v3.4h4.47v3.27h-4.47v7.69a1.7,1.7,0,0,0,.52,1.37A2.06,2.06,0,0,0,224.27,242.22Z"/><path class="cls-2" d="M226.2,229.45H231l3,9a12.41,12.41,0,0,1,.53,2.77h.09a12.23,12.23,0,0,1,.61-2.77l3-9h4.67l-6.75,18a7.79,7.79,0,0,1-2.65,3.74,6.68,6.68,0,0,1-4,1.24,10.12,10.12,0,0,1-2.21-.24v-3.45a7.42,7.42,0,0,0,1.71.19,3.09,3.09,0,0,0,2-.71,4.58,4.58,0,0,0,1.35-2.13l.26-.79Z"/><path class="cls-2" d="M255.7,245.69a6.64,6.64,0,0,1-5.21-2.1,8.45,8.45,0,0,1-1.88-5.85,8.59,8.59,0,0,1,2-6,6.88,6.88,0,0,1,5.35-2.15,10.76,10.76,0,0,1,3.85.7l-.39,1.26a11.32,11.32,0,0,0-3.5-.67,5.31,5.31,0,0,0-4.32,1.76,7.73,7.73,0,0,0-1.47,5.07,7.5,7.5,0,0,0,1.47,4.92,5,5,0,0,0,4.11,1.78,10.08,10.08,0,0,0,3.92-.76V245A8.89,8.89,0,0,1,255.7,245.69Z"/><path class="cls-2" d="M270.36,245.69a6.76,6.76,0,0,1-5.27-2.08,8.37,8.37,0,0,1-1.89-5.84,9.1,9.1,0,0,1,1.83-5.94,6,6,0,0,1,4.92-2.23,5.32,5.32,0,0,1,4.32,1.91,7.9,7.9,0,0,1,1.58,5.2v1.14H264.68a7.33,7.33,0,0,0,1.49,4.88,5.25,5.25,0,0,0,4.19,1.68,13,13,0,0,0,2.33-.19,14.14,14.14,0,0,0,2.55-.8v1.28a11.38,11.38,0,0,1-2.43.78A13.5,13.5,0,0,1,270.36,245.69ZM270,230.85a4.65,4.65,0,0,0-3.6,1.48,7,7,0,0,0-1.58,4.26h9.59a6.77,6.77,0,0,0-1.17-4.22A3.86,3.86,0,0,0,270,230.85Z"/><path class="cls-2" d="M291.66,245.4V235.34a4.91,4.91,0,0,0-1-3.4,4,4,0,0,0-3.05-1.06,5.29,5.29,0,0,0-4.07,1.41q-1.29,1.41-1.29,4.56v8.56h-1.41V229.89H282l.27,2.13h.09q1.51-2.43,5.38-2.43,5.28,0,5.28,5.67V245.4Z"/><path class="cls-2" d="M302.88,244.43a10.6,10.6,0,0,0,2.34-.23v1.14a7.49,7.49,0,0,1-2.37.34,3.86,3.86,0,0,1-3-1.1,5.1,5.1,0,0,1-1-3.45v-10h-2.3v-.83l2.3-.64.71-3.51h.73v3.75h4.55v1.23h-4.55v9.82a4.48,4.48,0,0,0,.63,2.64A2.28,2.28,0,0,0,302.88,244.43Z"/><path class="cls-2" d="M315.54,245.69a6.76,6.76,0,0,1-5.27-2.08,8.37,8.37,0,0,1-1.89-5.84,9.1,9.1,0,0,1,1.83-5.94,6,6,0,0,1,4.92-2.23,5.32,5.32,0,0,1,4.32,1.91,7.9,7.9,0,0,1,1.58,5.2v1.14H309.86a7.33,7.33,0,0,0,1.49,4.88,5.25,5.25,0,0,0,4.19,1.68,13,13,0,0,0,2.33-.19,14.14,14.14,0,0,0,2.55-.8v1.28a11.38,11.38,0,0,1-2.43.78A13.5,13.5,0,0,1,315.54,245.69Zm-.41-14.84a4.65,4.65,0,0,0-3.6,1.48,7,7,0,0,0-1.58,4.26h9.59a6.77,6.77,0,0,0-1.17-4.22A3.86,3.86,0,0,0,315.13,230.85Z"/><path class="cls-2" d="M336.84,245.4V235.34a4.91,4.91,0,0,0-1-3.4,4,4,0,0,0-3.05-1.06,5.29,5.29,0,0,0-4.07,1.41q-1.29,1.41-1.29,4.56v8.56H326V229.89h1.2l.27,2.13h.09q1.51-2.43,5.38-2.43,5.28,0,5.28,5.67V245.4Z"/><path class="cls-2" d="M353.38,245.4l-.36-2.45h-.11a7.36,7.36,0,0,1-2.4,2.12,6.42,6.42,0,0,1-2.92.62,5,5,0,0,1-3.55-1.17,4.19,4.19,0,0,1-1.27-3.24,4,4,0,0,1,1.89-3.53,10.28,10.28,0,0,1,5.47-1.33l3-.09v-1a5.27,5.27,0,0,0-.9-3.34,3.49,3.49,0,0,0-2.9-1.13,9.69,9.69,0,0,0-4.47,1.2l-.53-1.23a11.82,11.82,0,0,1,5.05-1.2,5,5,0,0,1,3.82,1.33,5.83,5.83,0,0,1,1.26,4.14V245.4Zm-5.71-1A4.94,4.94,0,0,0,353,239v-1.53l-2.71.11a10.24,10.24,0,0,0-4.66,1,2.94,2.94,0,0,0-1.39,2.69,2.89,2.89,0,0,0,.89,2.26A3.62,3.62,0,0,0,347.67,244.4Z"/><path class="cls-2" d="M366.26,229.59a12.12,12.12,0,0,1,2.11.2l-.27,1.36a8.29,8.29,0,0,0-2-.24,3.91,3.91,0,0,0-3.25,1.68,6.86,6.86,0,0,0-1.27,4.25v8.56h-1.41V229.89h1.2l.14,2.8h.1a6.58,6.58,0,0,1,2-2.4A4.78,4.78,0,0,1,366.26,229.59Z"/><path class="cls-2" d="M369.63,229.89h1.46l3.28,8.71q1.5,4,1.9,5.41h.09q.6-1.84,2-5.49l3.28-8.62H383l-7,18a14,14,0,0,1-1.41,3,3.78,3.78,0,0,1-1.33,1.16,4.06,4.06,0,0,1-1.85.39,6.38,6.38,0,0,1-1.81-.3V250.9a6.67,6.67,0,0,0,1.78.23,2.4,2.4,0,0,0,1.28-.34,3.21,3.21,0,0,0,1-1.06,14,14,0,0,0,1-2.28q.59-1.56.76-2Z"/><path class="cls-2" d="M400.83,245.69a6.64,6.64,0,0,1-5.21-2.1,8.45,8.45,0,0,1-1.88-5.85,8.59,8.59,0,0,1,2-6,6.88,6.88,0,0,1,5.35-2.15,10.76,10.76,0,0,1,3.85.7l-.39,1.26a11.32,11.32,0,0,0-3.5-.67,5.31,5.31,0,0,0-4.32,1.76,7.73,7.73,0,0,0-1.47,5.07,7.5,7.5,0,0,0,1.47,4.92,5,5,0,0,0,4.11,1.78,10.08,10.08,0,0,0,3.92-.76V245A8.89,8.89,0,0,1,400.83,245.69Z"/><path class="cls-2" d="M422.06,237.63a8.79,8.79,0,0,1-1.84,5.93,6.36,6.36,0,0,1-5.08,2.13,6.58,6.58,0,0,1-3.6-1,6.3,6.3,0,0,1-2.38-2.83,10.28,10.28,0,0,1-.83-4.25,8.73,8.73,0,0,1,1.84-5.92,6.34,6.34,0,0,1,5.05-2.12,6.22,6.22,0,0,1,5,2.15A8.82,8.82,0,0,1,422.06,237.63Zm-12.25,0a7.89,7.89,0,0,0,1.41,5,5.31,5.31,0,0,0,7.95,0,7.89,7.89,0,0,0,1.41-5,7.77,7.77,0,0,0-1.42-5,4.83,4.83,0,0,0-4-1.77,4.75,4.75,0,0,0-4,1.76A7.88,7.88,0,0,0,409.81,237.63Z"/><path class="cls-2" d="M437.87,245.4V235.34a4.91,4.91,0,0,0-1-3.4,4,4,0,0,0-3.05-1.06,5.29,5.29,0,0,0-4.07,1.41q-1.29,1.41-1.29,4.56v8.56h-1.41V229.89h1.2l.27,2.13h.09q1.51-2.43,5.38-2.43,5.28,0,5.28,5.67V245.4Z"/><path class="cls-2" d="M450.76,231.12h-3.65V245.4H445.7V231.12h-2.88v-.83l2.88-.53v-1.2a6.77,6.77,0,0,1,1-4.19,4.11,4.11,0,0,1,3.43-1.33,8.9,8.9,0,0,1,2.57.39l-.33,1.23a7.58,7.58,0,0,0-2.27-.36,2.68,2.68,0,0,0-2.35,1,5.62,5.62,0,0,0-.69,3.18v1.44h3.65Z"/><path class="cls-2" d="M460.73,245.69a6.76,6.76,0,0,1-5.27-2.08,8.37,8.37,0,0,1-1.89-5.84,9.1,9.1,0,0,1,1.83-5.94,6,6,0,0,1,4.92-2.23,5.32,5.32,0,0,1,4.32,1.91,7.9,7.9,0,0,1,1.58,5.2v1.14H455a7.33,7.33,0,0,0,1.49,4.88,5.25,5.25,0,0,0,4.19,1.68,13,13,0,0,0,2.33-.19,14.14,14.14,0,0,0,2.55-.8v1.28a11.38,11.38,0,0,1-2.43.78A13.5,13.5,0,0,1,460.73,245.69Zm-.41-14.84a4.65,4.65,0,0,0-3.6,1.48,7,7,0,0,0-1.58,4.26h9.59a6.77,6.77,0,0,0-1.17-4.22A3.86,3.86,0,0,0,460.31,230.85Z"/><path class="cls-2" d="M477.31,229.59a12.12,12.12,0,0,1,2.11.2l-.27,1.36a8.29,8.29,0,0,0-2-.24,3.91,3.91,0,0,0-3.25,1.68,6.86,6.86,0,0,0-1.27,4.25v8.56H471.2V229.89h1.2l.14,2.8h.1a6.58,6.58,0,0,1,2-2.4A4.78,4.78,0,0,1,477.31,229.59Z"/><path class="cls-2" d="M489.55,245.69a6.76,6.76,0,0,1-5.27-2.08,8.37,8.37,0,0,1-1.89-5.84,9.1,9.1,0,0,1,1.83-5.94,6,6,0,0,1,4.92-2.23,5.32,5.32,0,0,1,4.32,1.91,7.9,7.9,0,0,1,1.58,5.2v1.14H483.87a7.33,7.33,0,0,0,1.49,4.88,5.25,5.25,0,0,0,4.19,1.68,13,13,0,0,0,2.33-.19,14.14,14.14,0,0,0,2.55-.8v1.28a11.38,11.38,0,0,1-2.43.78A13.5,13.5,0,0,1,489.55,245.69Zm-.41-14.84a4.65,4.65,0,0,0-3.6,1.48,7,7,0,0,0-1.58,4.26h9.59a6.77,6.77,0,0,0-1.17-4.22A3.86,3.86,0,0,0,489.13,230.85Z"/><path class="cls-2" d="M510.84,245.4V235.34a4.91,4.91,0,0,0-1-3.4,4,4,0,0,0-3.05-1.06,5.29,5.29,0,0,0-4.07,1.41q-1.29,1.41-1.29,4.56v8.56H500V229.89h1.2l.27,2.13h.09q1.51-2.43,5.38-2.43,5.28,0,5.28,5.67V245.4Z"/><path class="cls-2" d="M524.16,245.69a6.64,6.64,0,0,1-5.21-2.1,8.45,8.45,0,0,1-1.88-5.85,8.59,8.59,0,0,1,2-6,6.88,6.88,0,0,1,5.35-2.15,10.76,10.76,0,0,1,3.85.7l-.39,1.26a11.32,11.32,0,0,0-3.5-.67,5.31,5.31,0,0,0-4.32,1.76,7.73,7.73,0,0,0-1.47,5.07,7.5,7.5,0,0,0,1.47,4.92,5,5,0,0,0,4.11,1.78,10.08,10.08,0,0,0,3.92-.76V245A8.89,8.89,0,0,1,524.16,245.69Z"/><path class="cls-2" d="M538.82,245.69a6.76,6.76,0,0,1-5.27-2.08,8.37,8.37,0,0,1-1.89-5.84,9.1,9.1,0,0,1,1.83-5.94,6,6,0,0,1,4.92-2.23,5.32,5.32,0,0,1,4.32,1.91,7.9,7.9,0,0,1,1.58,5.2v1.14H533.14a7.33,7.33,0,0,0,1.49,4.88,5.25,5.25,0,0,0,4.19,1.68,13,13,0,0,0,2.33-.19,14.14,14.14,0,0,0,2.55-.8v1.28a11.38,11.38,0,0,1-2.43.78A13.5,13.5,0,0,1,538.82,245.69Zm-.41-14.84a4.65,4.65,0,0,0-3.6,1.48,7,7,0,0,0-1.58,4.26h9.59a6.77,6.77,0,0,0-1.17-4.22A3.86,3.86,0,0,0,538.41,230.85Z"/><path class="cls-2" d="M19.81,192.53H11.92V169.79H4.8v-6.45H26.91v6.45H19.81Z"/><path class="cls-2" d="M65.75,177.9q0,7.36-3.61,11.2t-10.58,3.83q-6.87,0-10.53-3.85t-3.66-11.22q0-7.28,3.64-11.13t10.59-3.84q7,0,10.56,3.81T65.75,177.9Zm-20.08,0q0,8.46,5.89,8.46A5.06,5.06,0,0,0,56,184.3q1.45-2.06,1.45-6.41T56,171.44a5,5,0,0,0-4.38-2.09Q45.67,169.35,45.67,177.9Z"/><path class="cls-2" d="M109.34,169.39A5,5,0,0,0,105,171.7a11.13,11.13,0,0,0-1.58,6.36q0,8.42,6.41,8.42a13.12,13.12,0,0,0,3.75-.54,37.47,37.47,0,0,0,3.65-1.3v6.67a20.22,20.22,0,0,1-8.26,1.62q-6.61,0-10.13-3.83T95.27,178a17.67,17.67,0,0,1,1.71-8,12.21,12.21,0,0,1,4.91-5.28,14.83,14.83,0,0,1,7.53-1.85,20.76,20.76,0,0,1,9,2.06L116,171.19a27.07,27.07,0,0,0-3.23-1.28A11.29,11.29,0,0,0,109.34,169.39Z"/><path class="cls-2" d="M155.24,192.53h-7.92v-11.9h-9.16v11.9h-7.92V163.35h7.92v10.82h9.16V163.35h7.92Z"/><path class="cls-2" d="M186.81,192.53l-1.44-5.47h-9.48l-1.48,5.47h-8.66l9.52-29.3h10.52l9.64,29.3Zm-3.07-11.94-1.26-4.79q-.44-1.6-1.07-4.13t-.83-3.63q-.18,1-.71,3.35t-2.35,9.2Z"/><path class="cls-2" d="M233.72,192.53H223.39L212.73,172h-.18q.38,4.85.38,7.4v13.15h-7V163.35h10.3l10.62,20.28H227q-.28-4.41-.28-7.09V163.35h7Z"/><path class="cls-2" d="M259.11,175.44H271.7v15.73a34.62,34.62,0,0,1-11.28,1.76q-6.75,0-10.43-3.91t-3.68-11.16q0-7.07,4-11t11.3-3.93a25,25,0,0,1,5.2.52,22,22,0,0,1,4.26,1.32l-2.49,6.19a15.43,15.43,0,0,0-6.93-1.56,6.59,6.59,0,0,0-5.34,2.25,9.72,9.72,0,0,0-1.89,6.42q0,4.09,1.71,6.24a5.92,5.92,0,0,0,4.92,2.15,14.42,14.42,0,0,0,3.23-.34v-4.57h-5.21Z"/><path class="cls-2" d="M302.33,192.53H285V163.35h17.32v6.33h-9.44v4.59h8.74v6.33h-8.74v5.51h9.44Z"/><path class="cls-2" d="M332.77,163.35H343q5.95,0,8.83,1.77a6,6,0,0,1,2.88,5.5,7,7,0,0,1-1.26,4.19A5.61,5.61,0,0,1,350.1,177v.2a6.79,6.79,0,0,1,3.93,2.4,7.23,7.23,0,0,1,1.22,4.35,7.45,7.45,0,0,1-3,6.26q-3,2.29-8.13,2.29H332.77Zm7.88,11.2H343a4.29,4.29,0,0,0,2.62-.7,2.43,2.43,0,0,0,.93-2.08q0-2.45-3.71-2.46h-2.22Zm0,5.77v6.13h2.77q3.69,0,3.69-3.11a2.68,2.68,0,0,0-1-2.24,4.55,4.55,0,0,0-2.86-.78Z"/><path class="cls-2" d="M375.56,181.91v10.62h-7.88V163.35h9.56q11.9,0,11.9,8.62,0,5.07-4.95,7.84l8.5,12.71h-8.94l-6.19-10.62Zm0-5.93H377q4.13,0,4.13-3.65,0-3-4.05-3h-1.56Z"/><path class="cls-2" d="M402.7,192.53V163.35h7.92v29.18Z"/><path class="cls-2" d="M437.16,192.53h-7.88V169.79h-7.13v-6.45h22.11v6.45h-7.11Z"/><path class="cls-2" d="M473.7,192.53l-1.44-5.47h-9.48l-1.48,5.47h-8.66l9.52-29.3h10.52l9.64,29.3Zm-3.07-11.94-1.26-4.79q-.44-1.6-1.07-4.13t-.83-3.63q-.18,1-.71,3.35t-2.35,9.2Z"/><path class="cls-2" d="M492.83,192.53V163.35h7.92v29.18Z"/><path class="cls-2" d="M542.2,192.53H531.86L521.2,172H521q.38,4.85.38,7.4v13.15h-7V163.35h10.3l10.62,20.28h.12q-.28-4.41-.28-7.09V163.35h7Z"/></svg>