<?xml version="1.0" encoding="utf-8"?>
<!-- Generator: Adobe Illustrator 20.1.0, SVG Export Plug-In . SVG Version: 6.00 Build 0)  -->
<svg version="1.1" id="Layer_1" xmlns="http://www.w3.org/2000/svg" xmlns:xlink="http://www.w3.org/1999/xlink" x="0px" y="0px"
	 viewBox="0 0 1480.1 150" style="enable-background:new 0 0 1480.1 150;" xml:space="preserve">
<style type="text/css">
	.st0{fill:#FFFFFF;}
</style>
<path class="st0" d="M42.8,97.6c3.9,0,8.6-0.9,14.1-2.6v16.6c-5.6,2.5-12.4,3.7-20.5,3.7c-8.9,0-15.4-2.3-19.5-6.8
	c-4.1-4.5-6.1-11.3-6.1-20.3V48.9H0v-9.4l12.3-7.5l6.4-17.3H33v17.4H56v16.8H33v39.5c0,3.2,0.9,5.5,2.7,7
	C37.5,96.9,39.8,97.6,42.8,97.6z"/>
<path class="st0" d="M140,114h-22.3V66.1c0-11.8-4.4-17.7-13.2-17.7c-6.3,0-10.8,2.1-13.6,6.4s-4.2,11.1-4.2,20.7V114H64.4V0h22.3
	v23.2c0,1.8-0.2,6.1-0.5,12.7l-0.5,6.6h1.2c5-8,12.9-12,23.7-12c9.6,0,16.9,2.6,21.9,7.8c5,5.2,7.5,12.6,7.5,22.3L140,114L140,114z"
	/>
<path class="st0" d="M191,115.4c-13.2,0-23.5-3.6-30.9-10.9c-7.4-7.3-11.1-17.6-11.1-30.9c0-13.7,3.4-24.3,10.3-31.8
	c6.9-7.5,16.3-11.2,28.5-11.2c11.6,0,20.6,3.3,27,9.9s9.7,15.7,9.7,27.3v10.8h-52.8c0.2,6.3,2.1,11.3,5.6,14.9
	c3.5,3.6,8.4,5.3,14.8,5.3c4.9,0,9.6-0.5,14-1.5s9-2.7,13.8-4.9v17.3c-3.9,2-8.1,3.4-12.5,4.4C202.9,115,197.4,115.4,191,115.4z
	 M187.9,46.4c-4.7,0-8.4,1.5-11.1,4.5c-2.7,3-4.2,7.3-4.6,12.8h31.3c-0.1-5.5-1.5-9.8-4.3-12.8S192.6,46.4,187.9,46.4z"/>
<path class="st0" d="M296.8,115.4c-25.5,0-38.2-14-38.2-42c0-13.9,3.5-24.5,10.4-31.9c6.9-7.3,16.9-11,29.8-11
	c9.5,0,18,1.9,25.5,5.6l-6.6,17.3c-3.5-1.4-6.8-2.6-9.8-3.5c-3-0.9-6.1-1.4-9.1-1.4c-11.6,0-17.4,8.3-17.4,24.8c0,16,5.8,24,17.4,24
	c4.3,0,8.3-0.6,11.9-1.7c3.7-1.1,7.3-2.9,11-5.4v19.1c-3.6,2.3-7.3,3.9-11,4.8S302.4,115.4,296.8,115.4z"/>
<path class="st0" d="M406.1,72.9c0,13.3-3.5,23.8-10.5,31.3c-7,7.5-16.8,11.3-29.4,11.3c-7.9,0-14.8-1.7-20.8-5.2
	c-6-3.4-10.6-8.4-13.8-14.8s-4.8-14-4.8-22.6c0-13.4,3.5-23.8,10.5-31.2c7-7.4,16.8-11.1,29.4-11.1c7.9,0,14.8,1.7,20.8,5.1
	c6,3.4,10.6,8.3,13.8,14.7C404.5,56.8,406.1,64.3,406.1,72.9z M349.5,72.9c0,8.1,1.3,14.2,4,18.4c2.7,4.2,7,6.2,13,6.2
	c6,0,10.2-2.1,12.9-6.2c2.6-4.1,3.9-10.3,3.9-18.4c0-8.1-1.3-14.2-4-18.2c-2.6-4.1-7-6.1-13-6.1c-6,0-10.3,2-12.9,6
	S349.5,64.7,349.5,72.9z"/>
<path class="st0" d="M408.3,82.9V64.6h39.3v18.3H408.3z"/>
<path class="st0" d="M529.2,72.9c0,13.3-3.5,23.8-10.5,31.3c-7,7.5-16.8,11.3-29.4,11.3c-7.9,0-14.8-1.7-20.8-5.2
	c-6-3.4-10.6-8.4-13.8-14.8s-4.8-14-4.8-22.6c0-13.4,3.5-23.8,10.5-31.2c7-7.4,16.8-11.1,29.4-11.1c7.9,0,14.8,1.7,20.8,5.1
	c6,3.4,10.6,8.3,13.8,14.7C527.6,56.8,529.2,64.3,529.2,72.9z M472.6,72.9c0,8.1,1.3,14.2,4,18.4c2.7,4.2,7,6.2,13,6.2
	c6,0,10.2-2.1,12.9-6.2c2.6-4.1,3.9-10.3,3.9-18.4c0-8.1-1.3-14.2-4-18.2c-2.6-4.1-7-6.1-13-6.1c-6,0-10.3,2-12.9,6
	S472.6,64.7,472.6,72.9z"/>
<path class="st0" d="M583.7,115.4c-9.6,0-17.2-3.5-22.6-10.5h-1.2c0.8,6.8,1.2,10.8,1.2,11.9V150h-22.3V32.1h18.2l3.1,10.6h1
	c5.2-8.1,13-12.2,23.2-12.2c9.7,0,17.2,3.7,22.7,11.2c5.5,7.5,8.2,17.8,8.2,31.1c0,8.7-1.3,16.3-3.8,22.8c-2.6,6.4-6.2,11.4-11,14.7
	C595.6,113.7,590.1,115.4,583.7,115.4z M577.1,48.4c-5.5,0-9.5,1.7-12.1,5.1c-2.5,3.4-3.9,9-4,16.8v2.4c0,8.8,1.3,15.1,3.9,18.9
	s6.8,5.7,12.4,5.7c10,0,15-8.3,15-24.8c0-8.1-1.2-14.1-3.7-18.1S582.3,48.4,577.1,48.4z"/>
<path class="st0" d="M661.7,115.4c-13.2,0-23.5-3.6-30.9-10.9c-7.4-7.3-11.1-17.6-11.1-30.9c0-13.7,3.4-24.3,10.3-31.8
	c6.9-7.5,16.3-11.2,28.5-11.2c11.6,0,20.6,3.3,27,9.9s9.7,15.7,9.7,27.3v10.8h-52.8c0.2,6.3,2.1,11.3,5.6,14.9
	c3.5,3.6,8.4,5.3,14.8,5.3c4.9,0,9.6-0.5,14-1.5s9-2.7,13.8-4.9v17.3c-3.9,2-8.1,3.4-12.5,4.4C673.5,115,668.1,115.4,661.7,115.4z
	 M658.5,46.4c-4.7,0-8.4,1.5-11.1,4.5c-2.7,3-4.2,7.3-4.6,12.8h31.3c-0.1-5.5-1.5-9.8-4.3-12.8S663.3,46.4,658.5,46.4z"/>
<path class="st0" d="M749.9,30.5c3,0,5.5,0.2,7.5,0.7l-1.7,20.9c-1.8-0.5-4-0.7-6.6-0.7c-7.1,0-12.7,1.8-16.7,5.5s-6,8.8-6,15.4V114
	h-22.3V32.1h16.9l3.3,13.8h1.1c2.5-4.6,6-8.3,10.3-11.1C740.2,31.9,744.9,30.5,749.9,30.5z"/>
<path class="st0" d="M815.4,114l-4.3-11.1h-0.6c-3.8,4.7-7.6,8-11.6,9.9c-4,1.8-9.2,2.7-15.6,2.7c-7.9,0-14.1-2.2-18.6-6.7
	c-4.5-4.5-6.8-10.9-6.8-19.2c0-8.7,3-15.1,9.1-19.2c6.1-4.1,15.2-6.4,27.5-6.8l14.2-0.4v-3.6c0-8.3-4.2-12.5-12.7-12.5
	c-6.5,0-14.2,2-23.1,5.9l-7.4-15.1c9.4-4.9,19.9-7.4,31.3-7.4c11,0,19.4,2.4,25.3,7.2c5.9,4.8,8.8,12.1,8.8,21.8V114L815.4,114
	L815.4,114z M808.8,76l-8.6,0.3c-6.5,0.2-11.3,1.4-14.5,3.5c-3.2,2.1-4.8,5.4-4.8,9.8c0,6.3,3.6,9.4,10.8,9.4
	c5.2,0,9.3-1.5,12.4-4.5c3.1-3,4.7-6.9,4.7-11.9V76z"/>
<path class="st0" d="M879.5,97.6c3.9,0,8.6-0.9,14.1-2.6v16.6c-5.6,2.5-12.4,3.7-20.5,3.7c-8.9,0-15.4-2.3-19.5-6.8
	c-4.1-4.5-6.1-11.3-6.1-20.3V48.9h-10.7v-9.4l12.3-7.5l6.4-17.3h14.3v17.4h22.9v16.8h-22.9v39.5c0,3.2,0.9,5.5,2.7,7
	C874.2,96.9,876.5,97.6,879.5,97.6z"/>
<path class="st0" d="M900.1,10.9c0-7.3,4.1-10.9,12.2-10.9c8.1,0,12.2,3.6,12.2,10.9c0,3.5-1,6.2-3,8.1c-2,1.9-5.1,2.9-9.1,2.9
	C904.2,21.9,900.1,18.2,900.1,10.9z M923.4,114h-22.3V32.1h22.3V114z"/>
<path class="st0" d="M957.3,114l-31.2-81.9h23.4l15.8,46.7c1.8,5.9,2.9,11.5,3.3,16.8h0.4c0.2-4.7,1.3-10.3,3.3-16.8l15.7-46.7h23.4
	L980.3,114C980.3,114,957.3,114,957.3,114z"/>
<path class="st0" d="M1051.2,115.4c-13.2,0-23.5-3.6-30.9-10.9c-7.4-7.3-11.1-17.6-11.1-30.9c0-13.7,3.4-24.3,10.3-31.8
	c6.9-7.5,16.3-11.2,28.5-11.2c11.6,0,20.6,3.3,27,9.9s9.7,15.7,9.7,27.3v10.8h-52.8c0.2,6.3,2.1,11.3,5.6,14.9
	c3.5,3.6,8.4,5.3,14.8,5.3c4.9,0,9.6-0.5,14-1.5s9-2.7,13.8-4.9v17.3c-3.9,2-8.1,3.4-12.5,4.4C1063,115,1057.6,115.4,1051.2,115.4z
	 M1048.1,46.4c-4.7,0-8.4,1.5-11.1,4.5c-2.7,3-4.2,7.3-4.6,12.8h31.3c-0.1-5.5-1.5-9.8-4.3-12.8S1052.8,46.4,1048.1,46.4z"/>
<path class="st0" d="M1168.7,115.4c-9.6,0-17.2-3.5-22.6-10.5h-1.2c0.8,6.8,1.2,10.8,1.2,11.9V150h-22.3V32.1h18.2l3.1,10.6h1
	c5.2-8.1,13-12.2,23.2-12.2c9.7,0,17.2,3.7,22.7,11.2c5.5,7.5,8.2,17.8,8.2,31.1c0,8.7-1.3,16.3-3.8,22.8
	c-2.6,6.4-6.2,11.4-10.9,14.7C1180.7,113.7,1175.1,115.4,1168.7,115.4z M1162.1,48.4c-5.5,0-9.5,1.7-12.1,5.1c-2.5,3.4-3.9,9-4,16.8
	v2.4c0,8.8,1.3,15.1,3.9,18.9s6.8,5.7,12.4,5.7c10,0,15-8.3,15-24.8c0-8.1-1.2-14.1-3.7-18.1S1167.4,48.4,1162.1,48.4z"/>
<path class="st0" d="M1261.7,114l-4.3-11.1h-0.6c-3.8,4.7-7.6,8-11.6,9.9c-4,1.8-9.2,2.7-15.6,2.7c-7.9,0-14.1-2.2-18.6-6.7
	c-4.5-4.5-6.8-10.9-6.8-19.2c0-8.7,3-15.1,9.1-19.2c6.1-4.1,15.2-6.4,27.5-6.8l14.2-0.4v-3.6c0-8.3-4.2-12.5-12.7-12.5
	c-6.5,0-14.2,2-23.1,5.9l-7.4-15.1c9.4-4.9,19.9-7.4,31.3-7.4c11,0,19.4,2.4,25.3,7.2c5.9,4.8,8.8,12.1,8.8,21.8V114L1261.7,114
	L1261.7,114z M1255.1,76l-8.6,0.3c-6.5,0.2-11.3,1.4-14.5,3.5c-3.2,2.1-4.8,5.4-4.8,9.8c0,6.3,3.6,9.4,10.8,9.4
	c5.2,0,9.3-1.5,12.4-4.5c3.1-3,4.7-6.9,4.7-11.9L1255.1,76L1255.1,76z"/>
<path class="st0" d="M1337,30.5c3,0,5.5,0.2,7.5,0.7l-1.7,20.9c-1.8-0.5-4-0.7-6.6-0.7c-7.1,0-12.7,1.8-16.7,5.5
	c-4,3.7-6,8.8-6,15.4V114h-22.3V32.1h16.9l3.3,13.8h1.1c2.5-4.6,6-8.3,10.3-11.1C1327.2,31.9,1331.9,30.5,1337,30.5z"/>
<path class="st0" d="M1384.9,97.6c3.9,0,8.6-0.9,14.1-2.6v16.6c-5.6,2.5-12.4,3.7-20.5,3.7c-8.9,0-15.4-2.3-19.5-6.8
	c-4.1-4.5-6.1-11.3-6.1-20.3V48.9h-10.7v-9.4l12.3-7.5l6.4-17.3h14.3v17.4h22.9v16.8h-22.9v39.5c0,3.2,0.9,5.5,2.7,7
	C1379.6,96.9,1382,97.6,1384.9,97.6z"/>
<path class="st0" d="M1394.8,32.1h24.5l15.5,46.1c1.3,4,2.2,8.7,2.7,14.2h0.4c0.5-5,1.6-9.8,3.1-14.2l15.2-46.1h23.9l-34.6,92.4
	c-3.2,8.5-7.7,14.9-13.6,19.2s-12.8,6.4-20.6,6.4c-3.9,0-7.6-0.4-11.4-1.2V131c2.7,0.6,5.6,1,8.8,1c4,0,7.4-1.2,10.4-3.6
	c3-2.4,5.3-6.1,6.9-10.9l1.3-4L1394.8,32.1z"/>
</svg>
