<?xml version="1.0" encoding="utf-8"?>
<!-- Generator: Adobe Illustrator 15.0.2, SVG Export Plug-In . SVG Version: 6.00 Build 0)  -->
<!DOCTYPE svg PUBLIC "-//W3C//DTD SVG 1.1//EN" "http://www.w3.org/Graphics/SVG/1.1/DTD/svg11.dtd">
<svg version="1.1" id="Layer_1" xmlns="http://www.w3.org/2000/svg" xmlns:xlink="http://www.w3.org/1999/xlink" x="0px" y="0px"
	 width="2559.859px" height="1074.713px" viewBox="0 0 2559.859 1074.713" enable-background="new 0 0 2559.859 1074.713"
	 xml:space="preserve">
<path fill="#FFFFFF" d="M415.822,770.807c-208.058,0-377.273-169.215-377.273-377.258v-0.063
	c0-208.042,169.215-377.226,377.273-377.226h0.298h0.189h0.109c83.54,0.11,162.592,26.916,228.743,77.608
	c26.57,20.355,31.64,58.445,11.269,85.016c-20.418,26.57-58.508,31.561-85.063,11.284c-7.58-5.822-15.428-11.174-23.463-16.04
	c-0.533-0.282-1.036-0.596-1.553-0.911c-39.235-23.274-84.2-35.578-130.152-35.657h-0.079h-0.172h-0.11
	c-141.169,0-256.004,114.788-256.02,255.958c0.016,141.154,114.851,255.988,256.004,255.988c0.016-0.047,0.11-0.047,0.22,0
	c0.015-0.047,0.078-0.047,0.157,0c45.952-0.093,90.917-12.445,130.152-35.704c0.518-0.313,1.02-0.596,1.553-0.895
	c8.035-4.833,15.883-10.217,23.463-16.008c26.555-20.355,64.645-15.333,85.063,11.253c20.371,26.586,15.302,64.676-11.269,85.047
	c-66.151,50.646-145.203,77.498-228.743,77.608c-0.031-0.032-0.109-0.032-0.188,0h-0.11H415.822z M2036.957,997.902V748.851
	c33.334,13.01,69.18,21.956,107.096,21.956c208.012,0,377.258-169.262,377.258-377.321c0-208.042-169.246-377.226-377.258-377.226
	c-83.744,0-163.078,26.837-229.338,77.608c-26.586,20.355-31.641,58.445-11.254,85.016c20.355,26.57,58.414,31.64,85.031,11.236
	c44.871-34.386,98.701-52.56,155.561-52.56c141.139,0,255.959,114.788,255.959,255.926c0,141.186-114.82,256.02-255.959,256.02
	c-35.453,0-71.957-15.458-107.096-34.73v-21.768c0-33.492-27.152-60.673-60.643-60.673c-33.523,0-60.643,27.182-60.643,60.673
	v404.895c0,33.476,27.119,60.627,60.643,60.627C2009.805,1058.529,2036.957,1031.378,2036.957,997.902 M1279.24,669.359
	c47.349,44.211,106.203,76.4,172.118,91.733c202.535,47.051,405.744-79.397,453.029-281.979
	c47.209-202.456-79.256-405.695-281.914-452.982c-123.719-28.925-252.002,6.277-343.468,91.921
	c-47.381-44.211-106.235-76.243-171.993-91.623c-202.55-47.24-405.854,79.13-453.155,281.836
	c-47.129,202.644,79.304,405.931,281.868,453.139c28.438,6.607,57.143,9.824,85.581,9.824
	C1116.773,771.23,1209.197,734.915,1279.24,669.359 M1079.42,144.576c92.533,21.596,165.072,91.938,189.319,183.466
	c8.569,32.44,41.903,51.712,74.155,43.159c32.393-8.584,51.697-41.778,43.112-74.171c-7.675-28.956-18.629-56.53-32.455-82.221
	c62.526-64.017,153.694-90.98,241.297-70.578c137.545,32.11,223.439,170,191.438,307.309
	c-32.109,137.482-170.139,223.282-307.434,191.454c-99.579-23.259-175.665-103.096-193.792-203.429
	c-5.948-32.974-37.588-54.945-70.436-48.888c-33.006,5.964-54.898,37.525-48.935,70.499c7.204,39.706,20.528,77.169,38.938,111.46
	c-61.945,63.561-153.364,91.074-241.361,70.656c-137.466-32.079-223.235-170.016-191.297-307.513
	c27.59-118.036,133.118-197.951,249.38-197.951C1040.484,137.828,1060.007,140.025,1079.42,144.576"/>
</svg>
