<?xml version="1.0" encoding="utf-8"?>
<!-- Generator: Adobe Illustrator 15.0.2, SVG Export Plug-In . SVG Version: 6.00 Build 0)  -->
<!DOCTYPE svg PUBLIC "-//W3C//DTD SVG 1.0//EN" "http://www.w3.org/TR/2001/REC-SVG-20010904/DTD/svg10.dtd">
<svg version="1.0" id="Layer_1" xmlns="http://www.w3.org/2000/svg" xmlns:xlink="http://www.w3.org/1999/xlink" x="0px" y="0px"
	 width="1480.117px" height="256.314px" viewBox="0 0 1480.117 256.314" enable-background="new 0 0 1480.117 256.314"
	 xml:space="preserve">
<path fill="#711F8E" d="M42.773,97.632c3.906,0,8.593-0.854,14.063-2.563v16.626c-5.566,2.49-12.403,3.735-20.508,3.735
	c-8.936,0-15.443-2.258-19.519-6.775c-4.078-4.516-6.116-11.29-6.116-20.324V48.853H0v-9.448l12.305-7.471l6.445-17.285h14.282
	V32.08h22.925v16.772H33.032V88.33c0,3.175,0.89,5.519,2.673,7.031C37.487,96.875,39.844,97.632,42.773,97.632z"/>
<path fill="#711F8E" d="M139.975,113.965h-22.339V66.138c0-11.816-4.395-17.725-13.184-17.725c-6.251,0-10.767,2.124-13.55,6.372
	s-4.175,11.133-4.175,20.654v38.525H64.389V0h22.339v23.218c0,1.807-0.172,6.055-0.513,12.744l-0.513,6.592h1.172
	c4.98-8.007,12.891-12.012,23.73-12.012c9.619,0,16.919,2.589,21.899,7.764c4.98,5.176,7.471,12.598,7.471,22.266V113.965z"/>
<path fill="#711F8E" d="M191.033,115.43c-13.184,0-23.487-3.637-30.908-10.913c-7.423-7.275-11.133-17.578-11.133-30.908
	c0-13.72,3.43-24.328,10.291-31.824c6.859-7.495,16.344-11.243,28.455-11.243c11.572,0,20.581,3.296,27.026,9.888
	s9.668,15.699,9.668,27.319v10.84h-52.808c0.244,6.348,2.124,11.305,5.64,14.868c3.516,3.565,8.447,5.347,14.795,5.347
	c4.932,0,9.595-0.513,13.989-1.538s8.983-2.661,13.77-4.907v17.285c-3.907,1.953-8.082,3.405-12.524,4.358
	C202.85,114.953,197.43,115.43,191.033,115.43z M187.884,46.436c-4.736,0-8.448,1.501-11.133,4.504
	c-2.686,3.003-4.224,7.264-4.614,12.781h31.348c-0.099-5.517-1.538-9.778-4.321-12.781S192.619,46.436,187.884,46.436z"/>
<path fill="#711F8E" d="M296.813,115.43c-25.488,0-38.232-13.989-38.232-41.968c0-13.916,3.467-24.547,10.4-31.897
	c6.933-7.348,16.87-11.023,29.81-11.023c9.473,0,17.969,1.856,25.488,5.566l-6.592,17.285c-3.516-1.416-6.787-2.575-9.814-3.479
	c-3.028-0.903-6.055-1.355-9.082-1.355c-11.621,0-17.432,8.252-17.432,24.756c0,16.016,5.811,24.023,17.432,24.023
	c4.296,0,8.276-0.573,11.938-1.721c3.662-1.146,7.324-2.941,10.986-5.383v19.116c-3.614,2.296-7.264,3.882-10.95,4.761
	S302.427,115.43,296.813,115.43z"/>
<path fill="#711F8E" d="M406.099,72.876c0,13.33-3.516,23.756-10.547,31.274c-7.031,7.52-16.821,11.279-29.37,11.279
	c-7.862,0-14.795-1.721-20.801-5.164c-6.006-3.441-10.62-8.386-13.843-14.831s-4.834-13.964-4.834-22.559
	c0-13.378,3.49-23.778,10.474-31.201c6.982-7.421,16.797-11.133,29.443-11.133c7.861,0,14.795,1.71,20.801,5.127
	c6.006,3.418,10.62,8.326,13.843,14.722C404.487,56.788,406.099,64.283,406.099,72.876z M349.482,72.876
	c0,8.106,1.33,14.234,3.991,18.384c2.661,4.151,6.995,6.226,13.001,6.226c5.957,0,10.241-2.062,12.854-6.189
	c2.611-4.125,3.918-10.265,3.918-18.42c0-8.104-1.318-14.184-3.955-18.237c-2.637-4.052-6.958-6.079-12.964-6.079
	c-5.958,0-10.254,2.014-12.891,6.042S349.482,64.722,349.482,72.876z"/>
<path fill="#711F8E" d="M408.305,82.91V64.6h39.331V82.91H408.305z"/>
<path fill="#711F8E" d="M529.236,72.876c0,13.33-3.516,23.756-10.547,31.274c-7.031,7.52-16.821,11.279-29.37,11.279
	c-7.862,0-14.795-1.721-20.801-5.164c-6.006-3.441-10.62-8.386-13.843-14.831s-4.834-13.964-4.834-22.559
	c0-13.378,3.49-23.778,10.474-31.201c6.982-7.421,16.797-11.133,29.443-11.133c7.861,0,14.795,1.71,20.801,5.127
	c6.006,3.418,10.62,8.326,13.843,14.722C527.625,56.788,529.236,64.283,529.236,72.876z M472.62,72.876
	c0,8.106,1.33,14.234,3.992,18.384c2.66,4.151,6.994,6.226,13,6.226c5.957,0,10.241-2.062,12.854-6.189
	c2.612-4.125,3.919-10.265,3.919-18.42c0-8.104-1.318-14.184-3.955-18.237c-2.637-4.052-6.958-6.079-12.964-6.079
	c-5.958,0-10.254,2.014-12.891,6.042S472.62,64.722,472.62,72.876z"/>
<path fill="#711F8E" d="M583.664,115.43c-9.62,0-17.164-3.49-22.632-10.474h-1.172c0.78,6.837,1.172,10.791,1.172,11.865V150
	h-22.339V32.08h18.164l3.149,10.62h1.025c5.225-8.104,12.964-12.158,23.218-12.158c9.668,0,17.236,3.735,22.705,11.206
	c5.468,7.471,8.203,17.847,8.203,31.128c0,8.741-1.282,16.333-3.845,22.778c-2.564,6.445-6.215,11.353-10.95,14.722
	C595.627,113.745,590.061,115.43,583.664,115.43z M577.072,48.413c-5.519,0-9.547,1.697-12.085,5.09
	c-2.539,3.395-3.857,8.998-3.955,16.809v2.417c0,8.789,1.306,15.088,3.918,18.896s6.75,5.713,12.415,5.713
	c10.009,0,15.015-8.251,15.015-24.756c0-8.057-1.233-14.099-3.699-18.127S582.346,48.413,577.072,48.413z"/>
<path fill="#711F8E" d="M661.676,115.43c-13.184,0-23.486-3.637-30.908-10.913c-7.423-7.275-11.133-17.578-11.133-30.908
	c0-13.72,3.43-24.328,10.29-31.824c6.86-7.495,16.345-11.243,28.455-11.243c11.572,0,20.581,3.296,27.026,9.888
	s9.668,15.699,9.668,27.319v10.84h-52.808c0.244,6.348,2.124,11.305,5.64,14.868c3.516,3.565,8.447,5.347,14.795,5.347
	c4.932,0,9.595-0.513,13.989-1.538s8.983-2.661,13.77-4.907v17.285c-3.907,1.953-8.082,3.405-12.524,4.358
	C673.492,114.953,668.072,115.43,661.676,115.43z M658.526,46.436c-4.736,0-8.448,1.501-11.133,4.504
	c-2.686,3.003-4.224,7.264-4.614,12.781h31.348c-0.099-5.517-1.538-9.778-4.321-12.781S663.262,46.436,658.526,46.436z"/>
<path fill="#711F8E" d="M749.941,30.542c3.027,0,5.541,0.22,7.544,0.659l-1.685,20.947c-1.807-0.487-4.004-0.732-6.592-0.732
	c-7.13,0-12.684,1.831-16.663,5.493s-5.969,8.789-5.969,15.381v41.675h-22.339V32.08h16.919l3.296,13.77h1.099
	c2.538-4.589,5.969-8.288,10.291-11.096C740.163,31.946,744.862,30.542,749.941,30.542z"/>
<path fill="#711F8E" d="M815.356,113.965l-4.321-11.133h-0.586c-3.761,4.736-7.63,8.02-11.609,9.852
	c-3.979,1.83-9.167,2.746-15.564,2.746c-7.862,0-14.051-2.245-18.567-6.738c-4.517-4.492-6.774-10.888-6.774-19.189
	c0-8.69,3.04-15.099,9.118-19.226c6.08-4.125,15.246-6.409,27.503-6.848l14.209-0.439v-3.589c0-8.3-4.248-12.451-12.744-12.451
	c-6.544,0-14.235,1.978-23.072,5.933l-7.397-15.088c9.423-4.931,19.873-7.397,31.348-7.397c10.986,0,19.409,2.393,25.269,7.178
	c5.859,4.786,8.789,12.061,8.789,21.826v54.565H815.356z M808.764,76.025l-8.643,0.293c-6.494,0.196-11.329,1.368-14.502,3.516
	c-3.175,2.149-4.761,5.42-4.761,9.814c0,6.299,3.613,9.448,10.84,9.448c5.175,0,9.314-1.489,12.415-4.468
	c3.101-2.978,4.651-6.933,4.651-11.865V76.025z"/>
<path fill="#711F8E" d="M879.452,97.632c3.906,0,8.594-0.854,14.063-2.563v16.626c-5.566,2.49-12.403,3.735-20.508,3.735
	c-8.936,0-15.442-2.258-19.519-6.775c-4.078-4.516-6.116-11.29-6.116-20.324V48.853h-10.693v-9.448l12.305-7.471l6.445-17.285
	h14.282V32.08h22.925v16.772H869.71V88.33c0,3.175,0.891,5.519,2.674,7.031C874.166,96.875,876.522,97.632,879.452,97.632z"/>
<path fill="#711F8E" d="M900.115,10.913C900.115,3.638,904.167,0,912.273,0c8.104,0,12.158,3.638,12.158,10.913
	c0,3.468-1.014,6.165-3.039,8.093c-2.027,1.93-5.066,2.893-9.119,2.893C904.167,21.899,900.115,18.237,900.115,10.913z
	 M923.406,113.965h-22.339V32.08h22.339V113.965z"/>
<path fill="#711F8E" d="M957.326,113.965L926.125,32.08h23.364l15.82,46.655c1.758,5.909,2.856,11.499,3.296,16.772h0.439
	c0.244-4.688,1.343-10.278,3.296-16.772l15.747-46.655h23.364l-31.201,81.885H957.326z"/>
<path fill="#711F8E" d="M1051.231,115.43c-13.184,0-23.486-3.637-30.908-10.913c-7.423-7.275-11.133-17.578-11.133-30.908
	c0-13.72,3.43-24.328,10.29-31.824c6.86-7.495,16.345-11.243,28.455-11.243c11.572,0,20.581,3.296,27.026,9.888
	s9.668,15.699,9.668,27.319v10.84h-52.808c0.244,6.348,2.124,11.305,5.64,14.868c3.516,3.565,8.447,5.347,14.795,5.347
	c4.932,0,9.595-0.513,13.989-1.538s8.983-2.661,13.77-4.907v17.285c-3.907,1.953-8.082,3.405-12.524,4.358
	C1063.047,114.953,1057.627,115.43,1051.231,115.43z M1048.082,46.436c-4.736,0-8.448,1.501-11.133,4.504
	c-2.686,3.003-4.224,7.264-4.614,12.781h31.348c-0.099-5.517-1.538-9.778-4.321-12.781S1052.817,46.436,1048.082,46.436z"/>
<path fill="#711F8E" d="M1168.729,115.43c-9.62,0-17.164-3.49-22.632-10.474h-1.172c0.78,6.837,1.172,10.791,1.172,11.865V150
	h-22.339V32.08h18.164l3.149,10.62h1.025c5.225-8.104,12.964-12.158,23.218-12.158c9.668,0,17.236,3.735,22.705,11.206
	c5.468,7.471,8.203,17.847,8.203,31.128c0,8.741-1.282,16.333-3.845,22.778c-2.564,6.445-6.215,11.353-10.95,14.722
	C1180.692,113.745,1175.125,115.43,1168.729,115.43z M1162.137,48.413c-5.519,0-9.547,1.697-12.085,5.09
	c-2.539,3.395-3.857,8.998-3.955,16.809v2.417c0,8.789,1.306,15.088,3.918,18.896s6.75,5.713,12.415,5.713
	c10.009,0,15.015-8.251,15.015-24.756c0-8.057-1.233-14.099-3.699-18.127S1167.411,48.413,1162.137,48.413z"/>
<path fill="#711F8E" d="M1261.682,113.965l-4.321-11.133h-0.586c-3.761,4.736-7.63,8.02-11.609,9.852
	c-3.979,1.83-9.167,2.746-15.563,2.746c-7.862,0-14.051-2.245-18.567-6.738c-4.517-4.492-6.774-10.888-6.774-19.189
	c0-8.69,3.04-15.099,9.118-19.226c6.08-4.125,15.246-6.409,27.503-6.848l14.209-0.439v-3.589c0-8.3-4.248-12.451-12.744-12.451
	c-6.544,0-14.234,1.978-23.071,5.933l-7.397-15.088c9.423-4.931,19.873-7.397,31.348-7.397c10.986,0,19.409,2.393,25.269,7.178
	c5.859,4.786,8.789,12.061,8.789,21.826v54.565H1261.682z M1255.09,76.025l-8.643,0.293c-6.494,0.196-11.328,1.368-14.502,3.516
	c-3.175,2.149-4.761,5.42-4.761,9.814c0,6.299,3.613,9.448,10.84,9.448c5.175,0,9.313-1.489,12.414-4.468
	c3.101-2.978,4.651-6.933,4.651-11.865V76.025z"/>
<path fill="#711F8E" d="M1336.984,30.542c3.027,0,5.541,0.22,7.544,0.659l-1.685,20.947c-1.807-0.487-4.004-0.732-6.592-0.732
	c-7.13,0-12.684,1.831-16.662,5.493c-3.98,3.662-5.97,8.789-5.97,15.381v41.675h-22.339V32.08h16.919l3.296,13.77h1.099
	c2.538-4.589,5.97-8.288,10.29-11.096C1327.207,31.946,1331.905,30.542,1336.984,30.542z"/>
<path fill="#711F8E" d="M1384.893,97.632c3.906,0,8.594-0.854,14.063-2.563v16.626c-5.566,2.49-12.403,3.735-20.508,3.735
	c-8.936,0-15.442-2.258-19.519-6.775c-4.078-4.516-6.116-11.29-6.116-20.324V48.853h-10.693v-9.448l12.305-7.471l6.445-17.285
	h14.282V32.08h22.925v16.772h-22.925V88.33c0,3.175,0.891,5.519,2.674,7.031C1379.607,96.875,1381.963,97.632,1384.893,97.632z"/>
<path fill="#711F8E" d="M1394.79,32.08h24.463l15.454,46.069c1.318,4.004,2.222,8.741,2.71,14.209h0.439
	c0.537-5.028,1.586-9.765,3.149-14.209l15.161-46.069h23.95l-34.644,92.358c-3.175,8.544-7.703,14.941-13.587,19.189
	S1419.13,150,1411.269,150c-3.857,0-7.643-0.415-11.353-1.245V131.03c2.685,0.634,5.614,0.952,8.789,0.952
	c3.955,0,7.409-1.209,10.364-3.625c2.953-2.418,5.261-6.068,6.921-10.95l1.318-4.028L1394.79,32.08z"/>
<path fill="#711F8E" d="M24.749,231.193c-8.906,0-15.399-3.335-19.479-10.006H4.896l0.16,4.471c0.142,2.626,0.213,5.499,0.213,8.622
	v22.034H0v-84.039h4.471l1.011,8.25h0.319c3.974-6.244,10.325-9.367,19.054-9.367c7.806,0,13.758,2.563,17.856,7.69
	c4.099,5.128,6.147,12.587,6.147,22.38c0,9.51-2.155,16.881-6.467,22.114C38.081,228.577,32.2,231.193,24.749,231.193z
	 M24.642,226.51c5.925,0,10.511-2.199,13.758-6.6c3.246-4.399,4.87-10.556,4.87-18.469c0-16.995-6.139-25.493-18.415-25.493
	c-6.742,0-11.691,1.854-14.849,5.562c-3.158,3.708-4.737,9.749-4.737,18.123v1.703c0,9.047,1.517,15.506,4.55,19.373
	C12.854,224.576,17.794,226.51,24.642,226.51z"/>
<path fill="#711F8E" d="M109.456,201.123c0,9.438-2.289,16.81-6.866,22.113c-4.577,5.305-10.893,7.957-18.947,7.957
	c-5.074,0-9.545-1.225-13.412-3.672c-3.868-2.449-6.831-5.961-8.888-10.539c-2.058-4.576-3.087-9.863-3.087-15.859
	c0-9.438,2.289-16.792,6.866-22.062c4.577-5.269,10.857-7.903,18.841-7.903c7.948,0,14.184,2.67,18.708,8.01
	C107.193,184.509,109.456,191.827,109.456,201.123z M63.791,201.123c0,7.948,1.747,14.148,5.243,18.601
	c3.494,4.453,8.436,6.68,14.822,6.68s11.327-2.227,14.822-6.68c3.495-4.452,5.243-10.652,5.243-18.601
	c0-7.984-1.766-14.175-5.295-18.575c-3.531-4.399-8.489-6.6-14.876-6.6s-11.31,2.191-14.77,6.573
	C65.521,186.903,63.791,193.104,63.791,201.123z"/>
<path fill="#711F8E" d="M127.475,230.129h-5.269v-82.814h5.269V230.129z"/>
<path fill="#711F8E" d="M142.833,156.203c0-3.406,1.118-5.109,3.353-5.109c1.1,0,1.96,0.443,2.581,1.33
	c0.621,0.888,0.932,2.147,0.932,3.779c0,1.596-0.311,2.856-0.932,3.778c-0.621,0.923-1.481,1.384-2.581,1.384
	C143.95,161.365,142.833,159.645,142.833,156.203z M148.847,230.129h-5.269v-57.854h5.269V230.129z"/>
<path fill="#711F8E" d="M180.225,226.51c3.335,0,6.245-0.283,8.729-0.852v4.258c-2.555,0.852-5.5,1.277-8.835,1.277
	c-5.109,0-8.88-1.365-11.31-4.098c-2.431-2.732-3.646-7.025-3.646-12.881v-37.361h-8.569v-3.088l8.569-2.395l2.661-13.093h2.714
	v13.997h16.978v4.578h-16.978v36.617c0,4.436,0.78,7.717,2.342,9.846C174.441,225.445,176.889,226.51,180.225,226.51z"/>
<path fill="#711F8E" d="M197.445,156.203c0-3.406,1.118-5.109,3.353-5.109c1.1,0,1.96,0.443,2.582,1.33
	c0.62,0.888,0.931,2.147,0.931,3.779c0,1.596-0.311,2.856-0.931,3.778c-0.622,0.923-1.482,1.384-2.582,1.384
	C198.563,161.365,197.445,159.645,197.445,156.203z M203.459,230.129h-5.269v-57.854h5.269V230.129z"/>
<path fill="#711F8E" d="M242.661,231.193c-8.268,0-14.743-2.607-19.426-7.824c-4.684-5.215-7.025-12.488-7.025-21.82
	c0-9.58,2.43-17.04,7.292-22.381c4.861-5.34,11.514-8.01,19.958-8.01c5.003,0,9.793,0.87,14.37,2.607l-1.437,4.684
	c-5.003-1.667-9.35-2.501-13.04-2.501c-7.097,0-12.472,2.191-16.126,6.573c-3.655,4.382-5.482,10.689-5.482,18.92
	c0,7.807,1.827,13.918,5.482,18.336c3.654,4.417,8.764,6.626,15.328,6.626c5.251,0,10.13-0.939,14.636-2.821v4.896
	C253.5,230.289,248.657,231.193,242.661,231.193z"/>
<path fill="#711F8E" d="M303.951,215.066c0,5.182-1.97,9.164-5.907,11.949c-3.939,2.785-9.527,4.178-16.766,4.178
	c-7.735,0-13.874-1.188-18.415-3.566v-5.694c5.818,2.91,11.957,4.364,18.415,4.364c5.712,0,10.05-0.949,13.013-2.848
	c2.963-1.897,4.444-4.426,4.444-7.584c0-2.909-1.18-5.357-3.539-7.345c-2.36-1.986-6.236-3.938-11.629-5.854
	c-5.784-2.093-9.847-3.894-12.188-5.402c-2.342-1.508-4.107-3.211-5.296-5.109c-1.188-1.897-1.783-4.213-1.783-6.945
	c0-4.328,1.818-7.752,5.456-10.271c3.637-2.52,8.719-3.779,15.248-3.779c6.244,0,12.17,1.171,17.776,3.513l-1.969,4.79
	c-5.678-2.342-10.947-3.513-15.808-3.513c-4.72,0-8.462,0.781-11.229,2.342c-2.768,1.562-4.152,3.726-4.152,6.493
	c0,3.017,1.073,5.429,3.221,7.238c2.146,1.81,6.342,3.832,12.587,6.067c5.216,1.881,9.012,3.575,11.39,5.083
	c2.377,1.508,4.16,3.22,5.349,5.136S303.951,212.478,303.951,215.066z"/>
<path fill="#711F8E" d="M362.13,176.854h-13.625v53.275h-5.27v-53.275h-10.75v-3.088l10.75-1.969v-4.471
	c0-7.096,1.305-12.303,3.912-15.621c2.608-3.317,6.874-4.977,12.801-4.977c3.193,0,6.387,0.479,9.58,1.438l-1.225,4.577
	c-2.839-0.887-5.66-1.331-8.463-1.331c-4.116,0-7.034,1.216-8.755,3.646s-2.581,6.378-2.581,11.842v5.375h13.625V176.854z"/>
<path fill="#711F8E" d="M417.884,201.123c0,9.438-2.289,16.81-6.866,22.113c-4.577,5.305-10.894,7.957-18.947,7.957
	c-5.074,0-9.545-1.225-13.412-3.672c-3.868-2.449-6.831-5.961-8.888-10.539c-2.059-4.576-3.088-9.863-3.088-15.859
	c0-9.438,2.289-16.792,6.866-22.062c4.577-5.269,10.857-7.903,18.841-7.903c7.947,0,14.184,2.67,18.708,8.01
	C415.621,184.509,417.884,191.827,417.884,201.123z M372.218,201.123c0,7.948,1.748,14.148,5.243,18.601
	c3.494,4.453,8.436,6.68,14.822,6.68s11.327-2.227,14.822-6.68c3.495-4.452,5.243-10.652,5.243-18.601
	c0-7.984-1.766-14.175-5.296-18.575c-3.531-4.399-8.489-6.6-14.876-6.6s-11.31,2.191-14.77,6.573
	C373.948,186.903,372.218,193.104,372.218,201.123z"/>
<path fill="#711F8E" d="M453.413,171.158c2.448,0,5.073,0.249,7.877,0.745l-1.012,5.056c-2.413-0.603-4.914-0.904-7.504-0.904
	c-4.933,0-8.978,2.094-12.135,6.28c-3.158,4.188-4.736,9.474-4.736,15.86v31.934h-5.27v-57.854h4.471l0.532,10.432h0.372
	c2.377-4.258,4.914-7.246,7.611-8.968C446.316,172.019,449.581,171.158,453.413,171.158z"/>
<path fill="#711F8E" d="M519.575,231.193c-8.907,0-15.4-3.335-19.48-10.006h-0.372l0.159,4.471c0.142,2.626,0.213,5.499,0.213,8.622
	v22.034h-5.269v-84.039h4.471l1.011,8.25h0.32c3.973-6.244,10.324-9.367,19.053-9.367c7.806,0,13.759,2.563,17.856,7.69
	c4.099,5.128,6.147,12.587,6.147,22.38c0,9.51-2.155,16.881-6.467,22.114C532.907,228.577,527.026,231.193,519.575,231.193z
	 M519.468,226.51c5.926,0,10.512-2.199,13.759-6.6c3.246-4.399,4.87-10.556,4.87-18.469c0-16.995-6.14-25.493-18.416-25.493
	c-6.741,0-11.691,1.854-14.849,5.562c-3.158,3.708-4.737,9.749-4.737,18.123v1.703c0,9.047,1.518,15.506,4.551,19.373
	C507.68,224.576,512.62,226.51,519.468,226.51z"/>
<path fill="#711F8E" d="M579.8,231.193c-8.41,0-14.965-2.59-19.666-7.771c-4.702-5.18-7.053-12.436-7.053-21.769
	c0-9.225,2.271-16.613,6.813-22.167c4.542-5.553,10.662-8.329,18.362-8.329c6.813,0,12.188,2.378,16.126,7.132
	c3.939,4.755,5.908,11.213,5.908,19.373v4.258h-41.674c0.071,7.948,1.925,14.016,5.563,18.202c3.637,4.188,8.843,6.28,15.621,6.28
	c3.299,0,6.2-0.23,8.701-0.692c2.502-0.46,5.668-1.454,9.5-2.98v4.791c-3.265,1.419-6.279,2.386-9.047,2.9
	C586.187,230.936,583.134,231.193,579.8,231.193z M578.256,175.842c-5.571,0-10.042,1.836-13.412,5.509
	c-3.371,3.672-5.341,8.968-5.907,15.887h35.766c0-6.706-1.456-11.948-4.365-15.728C587.428,177.731,583.4,175.842,578.256,175.842z"
	/>
<path fill="#711F8E" d="M660.835,201.123c0,9.438-2.289,16.81-6.866,22.113c-4.577,5.305-10.894,7.957-18.947,7.957
	c-5.074,0-9.545-1.225-13.412-3.672c-3.868-2.449-6.831-5.961-8.888-10.539c-2.059-4.576-3.088-9.863-3.088-15.859
	c0-9.438,2.289-16.792,6.866-22.062c4.577-5.269,10.857-7.903,18.841-7.903c7.947,0,14.184,2.67,18.708,8.01
	C658.572,184.509,660.835,191.827,660.835,201.123z M615.169,201.123c0,7.948,1.748,14.148,5.243,18.601
	c3.494,4.453,8.436,6.68,14.822,6.68s11.327-2.227,14.822-6.68c3.495-4.452,5.243-10.652,5.243-18.601
	c0-7.984-1.766-14.175-5.296-18.575c-3.531-4.399-8.489-6.6-14.876-6.6s-11.31,2.191-14.77,6.573
	C616.899,186.903,615.169,193.104,615.169,201.123z"/>
<path fill="#711F8E" d="M698.333,231.193c-8.907,0-15.4-3.335-19.48-10.006h-0.372l0.159,4.471c0.142,2.626,0.213,5.499,0.213,8.622
	v22.034h-5.269v-84.039h4.471l1.011,8.25h0.32c3.973-6.244,10.324-9.367,19.053-9.367c7.806,0,13.759,2.563,17.856,7.69
	c4.099,5.128,6.147,12.587,6.147,22.38c0,9.51-2.155,16.881-6.467,22.114C711.665,228.577,705.784,231.193,698.333,231.193z
	 M698.226,226.51c5.926,0,10.512-2.199,13.759-6.6c3.246-4.399,4.87-10.556,4.87-18.469c0-16.995-6.14-25.493-18.416-25.493
	c-6.741,0-11.691,1.854-14.849,5.562c-3.158,3.708-4.737,9.749-4.737,18.123v1.703c0,9.047,1.518,15.506,4.551,19.373
	C686.438,224.576,691.378,226.51,698.226,226.51z"/>
<path fill="#711F8E" d="M740.462,230.129h-5.269v-82.814h5.269V230.129z"/>
<path fill="#711F8E" d="M779.931,231.193c-8.41,0-14.965-2.59-19.666-7.771c-4.702-5.18-7.053-12.436-7.053-21.769
	c0-9.225,2.271-16.613,6.813-22.167c4.542-5.553,10.662-8.329,18.362-8.329c6.813,0,12.188,2.378,16.126,7.132
	c3.939,4.755,5.908,11.213,5.908,19.373v4.258h-41.673c0.071,7.948,1.925,14.016,5.563,18.202c3.637,4.188,8.843,6.28,15.621,6.28
	c3.299,0,6.2-0.23,8.701-0.692c2.502-0.46,5.668-1.454,9.5-2.98v4.791c-3.264,1.419-6.279,2.386-9.046,2.9
	C786.317,230.936,783.265,231.193,779.931,231.193z M778.387,175.842c-5.571,0-10.042,1.836-13.412,5.509
	c-3.371,3.672-5.341,8.968-5.907,15.887h35.766c0-6.706-1.456-11.948-4.365-15.728C787.559,177.731,783.531,175.842,778.387,175.842
	z"/>
</svg>
