<svg id="Layer_1" data-name="Layer 1" xmlns="http://www.w3.org/2000/svg" viewBox="0 0 100 45"><title>dd-logo</title><path d="M47.11,13.32h5.07s5-.1,5,4.46c-.05,3.4-4.87,3.9-4.87,3.9H47.11V13.32h0ZM62.28,29.7c.14.66.62,1.4,2.22,1.47a6.15,6.15,0,0,0,3.35-.76V32a21.56,21.56,0,0,1-3.45.56c-1.17,0-4.61-.25-4.61-3.45,0-2.59,2.84-3.4,4.46-3.4,2.84.1,4.21,1.12,4.16,4,0,0-4.67,0-6.13,0Zm0-1.27h3.89S66.18,27,64.3,27A1.78,1.78,0,0,0,62.29,28.43ZM74.6,26.85a4,4,0,0,1,3.09-1.1,3.33,3.33,0,0,1,3.6,3.35c-.05.71-.3,3.4-4,3.4a3.45,3.45,0,0,1-2.74-1.05v.85H72.11V23.16H74.6v3.69h0Zm2.13,4.22a2.17,2.17,0,0,0,2.13-1.93c0-.61-.36-1.88-2.23-1.88a2,2,0,0,0-2,1.64v.66a1.94,1.94,0,0,0,2.13,1.5Zm21.45-.25.05,1.42a11.65,11.65,0,0,1-1.93.25c-.76,0-2.74-.46-2.74-2.38V27.17H91.48V25.85h2.08V24.28H96.1v1.57h2.08v1.32H96.1V29.7s0,1.27,1,1.27,1.06-.15,1.06-.15ZM90.47,14.69h2.94v7h2.48v-7h3V13.22H90.47Zm-1,.35.3-1.47a9.43,9.43,0,0,0-3.5-.56c-2.18,0-5.68,1.22-5.68,4.51s3.7,4.36,6,4.36a8.28,8.28,0,0,0,3-.35l-.25-1.62a10.46,10.46,0,0,1-2.74.3c-1.67-.05-3.4-1.37-3.4-2.84.05-1.32,1.57-2.79,3.55-2.79a8.14,8.14,0,0,1,2.69.46ZM67,13.27s4.16-.2,4.16,2.23c0,2.08-2.38,2.23-2.38,2.23a1.57,1.57,0,0,1,1,.56c.25.41,1.93,3.45,1.93,3.45H69.17a8.82,8.82,0,0,1-.61-.86c-.15-.35-.61-1.12-.61-1.12a1.74,1.74,0,0,0-1.57-1.27l-.91,0v3.28H63V13.27h4Zm-1.57,3.8h1.32s1.83-.1,1.93-1.22-1.77-1.22-1.77-1.22H65.47v2.43Zm10.19,1.32h4.06V16.82H75.66V14.89h4.41V13.27h-6.9v8.47h6.95V20.22H75.66V18.39h0Zm9.89,6.49H88V23.16H85.55Zm0,7.4H88V25.85H85.55ZM58.47,21.74H60.9V13.27H58.47v8.47ZM47.11,23.87h5.07s5-.1,5,4.46c-.05,3.4-4.87,3.91-4.87,3.91H47.11V23.87h0Zm2.49,6.8h1.62s3.35-.2,3.35-2.79S51,25,51,25H49.59Zm0-10.55h1.62s3.35-.25,3.35-2.79S51,14.49,51,14.49H49.59ZM24.34,18.36v17s-9.84-1.78-9.84-8.52C14.5,21.43,21.78,19.06,24.34,18.36Zm0-.32C18.43,17.62,5,20.39,5,26.46c0,4,7.1,9.74,18.66,9.89.46,0,13.59-.51,13.39-14.61C36.9,9.9,28,7.82,25.2,7.46V6.74c11.3.72,20.18,7.51,20.18,15.76,0,8.72-9.94,15.82-22.16,15.82S1.11,31.22,1.11,22.5,11,6.68,23.22,6.68l1.12,0V18h0Z"/></svg>