<?xml version="1.0" encoding="utf-8"?>
<!-- Generator: Adobe Illustrator 15.0.2, SVG Export Plug-In . SVG Version: 6.00 Build 0)  -->
<!DOCTYPE svg PUBLIC "-//W3C//DTD SVG 1.1//EN" "http://www.w3.org/Graphics/SVG/1.1/DTD/svg11.dtd">
<svg version="1.1" xmlns="http://www.w3.org/2000/svg" xmlns:xlink="http://www.w3.org/1999/xlink" x="0px" y="0px"
	 width="261.16px" height="206.217px" viewBox="0 0 261.16 206.217" enable-background="new 0 0 261.16 206.217"
	 xml:space="preserve">
<g id="Layer_1">
	<circle opacity="0.3" fill="#FFFFFF" cx="103.101" cy="103.16" r="103.101"/>
	<path fill="#FFFFFF" d="M25.965,89.419h4.47l6.855-29.563h-5.064l1.071-4.828h15.616l-1.133,4.828h-5.065L35.8,89.479h12.22
		l1.371-5.781h5.186l-2.443,10.55H24.834L25.965,89.419z"/>
	<path fill="#FFFFFF" d="M56.483,89.479c0-0.773,0.18-1.906,0.418-2.8l3.576-13.709h-4.828l1.133-4.411h10.073l-4.769,18.178
		c-0.298,1.015-0.418,2.028-0.418,2.623c0,1.133,0.597,1.789,1.55,1.789c1.191,0,2.267-0.895,3.518-4.173l2.323,0.834
		c-1.548,5.126-4.053,6.855-7.211,6.855C58.39,94.667,56.483,92.58,56.483,89.479z M61.49,60.751c0-1.907,1.549-3.458,3.458-3.458
		c1.847,0,3.456,1.551,3.456,3.458s-1.609,3.457-3.456,3.457C63.039,64.208,61.49,62.659,61.49,60.751z"/>
	<path fill="#FFFFFF" d="M73.112,72.97h-4.469l1.132-4.411h7.868l2.979,20.444c4.588-4.947,7.929-10.014,8.94-13.946
		c-1.311-0.479-2.503-1.61-2.503-3.397c0-1.967,1.551-3.577,3.577-3.577c2.264,0,3.932,1.729,3.932,4.589
		c0,5.425-5.601,14.008-13.946,22.293h-3.398L73.112,72.97z"/>
	<path fill="#FFFFFF" d="M97.611,89.479c0-0.773,0.177-1.906,0.416-2.8l3.577-13.709h-4.826l1.129-4.411h10.074l-4.769,18.178
		c-0.297,1.015-0.417,2.028-0.417,2.623c0,1.133,0.597,1.789,1.551,1.789c1.191,0,2.264-0.895,3.516-4.173l2.325,0.834
		c-1.549,5.126-4.053,6.855-7.213,6.855C99.518,94.667,97.611,92.58,97.611,89.479z M102.617,60.751
		c0-1.907,1.551-3.458,3.456-3.458c1.85,0,3.458,1.551,3.458,3.458s-1.608,3.457-3.458,3.457
		C104.168,64.208,102.617,62.659,102.617,60.751z"/>
	<path fill="#FFFFFF" d="M127.889,89.539c0-0.833,0.181-1.966,0.419-2.92l2.204-7.747c0.298-1.014,0.418-1.789,0.418-2.624
		c0-2.265-1.551-3.754-3.875-3.754c-3.16,0-6.139,2.682-7.451,7.809l-3.456,13.946h-5.246l5.365-21.278h-4.769l1.132-4.411h9.181
		l-1.372,6.019c2.026-3.576,5.365-6.437,8.882-6.437c3.932,0,6.974,2.682,6.974,7.273c0,1.251-0.239,2.681-0.656,4.171l-2.205,7.569
		c-0.181,0.776-0.358,1.61-0.358,2.086c0,1.193,0.598,1.908,1.609,1.908c1.014,0,2.146-0.895,3.337-4.173l2.326,0.834
		c-1.37,4.649-3.814,6.855-6.974,6.855C129.856,94.667,127.889,92.519,127.889,89.539z"/>
	<path fill="#FFFFFF" d="M140.05,103.188c-1.133-1.13-1.49-2.084-1.49-3.336c0-2.087,1.43-3.518,3.278-3.518
		c1.848,0,3.159,1.491,3.159,3.22c0,0.535-0.12,1.132-0.358,1.55c0.775,0.476,2.325,0.954,4.291,0.954
		c2.444,0,4.174-0.656,5.662-2.147c1.372-1.311,2.205-3.397,2.861-6.198l1.134-4.829c-2.206,3.101-5.306,5.067-8.821,5.067
		c-5.783,0-9.359-4.114-9.359-10.311c0-8.344,5.783-15.557,13.591-15.557c4.412,0,7.033,2.979,7.927,5.84l1.609-5.482h4.827
		l-6.139,26.463c-0.773,3.458-1.848,6.021-3.754,7.987c-2.266,2.207-5.246,3.279-9.419,3.279
		C145.474,106.169,141.6,104.739,140.05,103.188z M160.852,78.811c0-3.814-2.503-6.14-6.2-6.14c-5.006,0-8.819,4.77-8.819,10.61
		c0,3.815,2.504,6.198,6.078,6.198C157.037,89.479,160.852,84.354,160.852,78.811z"/>
	<path fill="#FFFFFF" d="M58.867,104.664h-4.231l1.132-4.828h14.425l-1.073,4.828h-4.946l1.191,24.676l14.543-25.212h2.563
		l4.351,25.33l12.041-24.794h-4.769l1.071-4.828h14.484l-1.133,4.828h-3.755L86.94,139.473H84.02l-4.707-24.975l-15.08,24.975
		l-2.862,0.061L58.867,104.664z"/>
	<path fill="#FFFFFF" d="M99.043,129.282c0-8.763,6.078-16.392,13.529-16.392c3.874,0,6.795,2.802,7.689,6.079l1.668-5.723h4.887
		l-4.528,18.299c-0.3,1.074-0.478,2.027-0.478,2.623c0,1.132,0.537,1.787,1.549,1.787c0.955,0,2.146-0.893,3.339-4.172l2.325,0.836
		c-1.551,5.125-4.233,6.854-7.094,6.854c-3.04,0-4.946-2.086-4.946-5.185v-0.3c-2.206,3.041-5.305,5.545-9.18,5.545
		C102.677,139.534,99.043,135.54,99.043,129.282z M119.068,123.797c0-3.814-1.907-6.319-5.84-6.319
		c-5.008,0-8.762,5.425-8.762,11.206c0,3.755,1.847,6.379,5.424,6.379C115.135,135.063,119.068,129.401,119.068,123.797z"/>
	<path fill="#FFFFFF" d="M129.62,147.997c-1.133-1.133-1.491-2.085-1.491-3.338c0-2.086,1.432-3.518,3.279-3.518
		c1.847,0,3.158,1.491,3.158,3.219c0,0.538-0.118,1.134-0.358,1.552c0.776,0.476,2.325,0.952,4.292,0.952
		c2.444,0,4.172-0.655,5.663-2.146c1.37-1.312,2.205-3.396,2.861-6.197l1.132-4.829c-2.206,3.101-5.305,5.067-8.821,5.067
		c-5.781,0-9.358-4.113-9.358-10.312c0-8.345,5.782-15.557,13.59-15.557c4.411,0,7.034,2.979,7.927,5.843l1.61-5.486h4.828
		l-6.14,26.465c-0.774,3.457-1.847,6.021-3.755,7.987c-2.266,2.204-5.245,3.277-9.418,3.277
		C135.045,150.976,131.17,149.547,129.62,147.997z M150.423,123.62c0-3.816-2.505-6.142-6.2-6.142c-5.008,0-8.821,4.769-8.821,10.61
		c0,3.814,2.502,6.2,6.079,6.2C146.606,134.289,150.423,129.163,150.423,123.62z"/>
	<circle opacity="0.2" fill="#FFFFFF" cx="180.269" cy="171.264" r="31.209"/>
	<path fill="#FFFFFF" d="M162.998,127.852v0.892c0,3.876,3.1,6.438,7.747,6.438c2.742,0,5.246-0.596,8.466-2.324l-1.014,4.887
		c-2.682,1.312-4.889,1.789-8.524,1.789c-6.139,0-11.801-3.876-11.801-10.909c0-8.701,6.436-15.734,14.065-15.734
		c6.26,0,10.373,3.577,10.373,9.595c0,1.611-0.299,3.398-0.956,5.367H162.998z M163.714,124.096h13.351
		c0.237-0.715,0.358-1.492,0.358-2.207c0-2.682-1.79-4.648-5.485-4.648C168.243,117.241,165.083,120.042,163.714,124.096z"/>
	<circle opacity="0.15" fill="#FFFFFF" cx="204.992" cy="120.045" r="56.305"/>
</g>
<g id="Layer_2">
	<g>
		<path fill="#FFFFFF" d="M88.905,173.791h2.415l3.754-16.237h-2.706l0.349-1.454h13.734l-1.019,4.335h-1.601l0.669-2.881h-7.769
			l-1.659,7.188h6.343l-0.32,1.455h-6.344l-1.775,7.595h7.77l0.669-2.881h1.601l-0.989,4.336H88.556L88.905,173.791z"/>
		<path fill="#FFFFFF" d="M107.962,164.363h-2.328l0.349-1.339h3.754l-0.786,2.939c1.193-1.921,2.706-3.172,4.365-3.172
			c1.892,0,3.114,1.135,3.172,3.056c1.193-1.862,2.793-3.056,4.394-3.056c1.921,0,3.229,1.367,3.229,3.172
			c0,0.611-0.175,1.28-0.349,1.92l-1.251,4.278c-0.117,0.407-0.204,0.96-0.204,1.192c0,0.582,0.378,0.961,0.902,0.961
			c0.64,0,1.135-0.582,1.688-1.921l0.901,0.291c-0.582,1.717-1.454,2.735-2.793,2.735c-1.28,0-2.211-0.844-2.211-2.066
			c0-0.32,0.116-0.931,0.232-1.338l1.251-4.336c0.175-0.641,0.291-1.135,0.291-1.659c0-1.105-0.727-1.92-1.92-1.92
			c-1.746,0-3.929,1.892-4.831,5.354l-1.513,5.791h-1.513l1.95-7.565c0.175-0.641,0.291-1.135,0.291-1.659
			c0-1.105-0.756-1.92-1.95-1.92c-1.717,0-4.044,1.92-4.889,5.325l-1.455,5.819h-1.513L107.962,164.363z"/>
		<path fill="#FFFFFF" d="M123.963,179.611h1.892l3.667-15.248h-2.328l0.32-1.339h3.753l-0.553,2.357
			c0.989-1.396,2.444-2.59,4.365-2.59c2.647,0,4.714,2.008,4.714,5.15c0,4.277-3.172,7.536-6.519,7.536
			c-2.036,0-3.695-1.135-4.219-2.938l-1.659,7.071h2.678l-0.32,1.338h-6.11L123.963,179.611z M138.163,168.117
			c0-2.415-1.251-3.958-3.346-3.958c-2.91,0-5.209,3.434-5.209,6.286c0,2.124,1.367,3.666,3.638,3.666
			C136.126,174.111,138.163,171.143,138.163,168.117z"/>
		<path fill="#FFFFFF" d="M141.595,173.354c0-0.32,0.116-0.785,0.203-1.222l3.929-16.849h-2.299l0.32-1.338h3.812l-4.248,18.187
			c-0.088,0.437-0.204,0.989-0.204,1.222c0,0.582,0.379,0.961,0.902,0.961c0.64,0,1.135-0.582,1.688-1.921l0.902,0.291
			c-0.582,1.717-1.455,2.735-2.794,2.735C142.525,175.42,141.595,174.577,141.595,173.354z"/>
		<path fill="#FFFFFF" d="M147.85,170.241c0-3.87,2.997-7.449,6.926-7.449c3.229,0,5.121,2.386,5.121,5.237
			c0,3.87-2.997,7.449-6.926,7.449C149.741,175.478,147.85,173.092,147.85,170.241z M158.354,168c0-2.328-1.571-3.842-3.667-3.842
			c-2.968,0-5.296,2.852-5.296,6.111c0,2.327,1.571,3.841,3.667,3.841C156.026,174.111,158.354,171.259,158.354,168z"/>
		<path fill="#FFFFFF" d="M157.479,179.611c0-0.67,0.494-1.31,1.222-1.31s1.164,0.523,1.223,1.338h0.146
			c0.698,0,2.27-1.105,4.976-4.423l-2.183-10.854h-2.27l0.32-1.339h3.317l1.949,10.737c2.328-3.026,4.656-6.314,5.063-8.264
			c-0.582-0.175-1.193-0.669-1.193-1.455c0-0.64,0.553-1.251,1.31-1.251c0.785,0,1.426,0.582,1.426,1.717
			c0,2.124-1.775,4.976-6.256,10.679c-3.667,4.686-5.587,5.878-7.304,5.878C158.353,181.065,157.479,180.455,157.479,179.611z"/>
		<path fill="#FFFFFF" d="M174.907,169.542c-0.028,0.262-0.028,0.523-0.028,0.785c0,2.532,2.065,3.813,4.132,3.813
			c1.426,0,2.444-0.291,4.016-1.135l-0.35,1.571c-1.28,0.64-2.327,0.901-3.928,0.901c-2.823,0-5.384-1.833-5.384-5.121
			c0-4.132,3.23-7.565,6.839-7.565c2.764,0,4.451,1.746,4.451,4.336c0,0.756-0.174,1.542-0.494,2.415H174.907z M175.198,168.262
			h7.799c0.146-0.437,0.232-0.932,0.232-1.396c0-1.368-0.931-2.707-3.143-2.707C177.934,164.159,175.955,165.905,175.198,168.262z"
			/>
		<path fill="#FFFFFF" d="M188.757,164.363h-2.327l0.349-1.339h3.754l-0.814,3.317c1.629-2.24,2.997-3.55,4.132-3.55
			c0.96,0,1.483,0.553,1.483,1.28c0,0.786-0.64,1.426-1.367,1.426c-0.669,0-1.135-0.407-1.28-0.989
			c-0.989,0.582-3.113,2.502-3.812,5.383l-1.339,5.354h-1.514L188.757,164.363z"/>
	</g>
	<g>
		<path fill="#FFFFFF" d="M55.216,31.71h-2.037l0.35-1.455h5.878l-0.35,1.455h-2.386l0.407,15.015l7.944-13.996h0.698l1.601,14.025
			l7.915-15.044h-2.328l0.349-1.455h5.849l-0.349,1.455h-1.92l-9.573,18.012h-0.931l-1.688-13.589l-7.856,13.589h-0.931
			L55.216,31.71z"/>
		<path fill="#FFFFFF" d="M76.571,43.699c-0.029,0.262-0.029,0.523-0.029,0.786c0,2.531,2.066,3.812,4.132,3.812
			c1.426,0,2.444-0.291,4.016-1.135l-0.349,1.571c-1.281,0.64-2.328,0.902-3.929,0.902c-2.822,0-5.383-1.833-5.383-5.122
			c0-4.132,3.229-7.565,6.838-7.565c2.764,0,4.452,1.746,4.452,4.335c0,0.757-0.175,1.542-0.495,2.416H76.571z M76.862,42.418h7.798
			c0.146-0.436,0.233-0.931,0.233-1.396c0-1.368-0.931-2.706-3.143-2.706C79.597,38.316,77.618,40.062,76.862,42.418z"/>
		<path fill="#FFFFFF" d="M92.601,44.572c0-4.161,3.026-7.624,6.547-7.624c2.211,0,3.667,1.222,4.016,3.172l0.728-3.084h1.513
			l-2.27,9.312c-0.117,0.465-0.204,0.931-0.204,1.164c0,0.582,0.378,0.96,0.902,0.96c0.64,0,1.135-0.582,1.688-1.92l0.902,0.291
			c-0.582,1.717-1.455,2.735-2.793,2.735c-1.28,0-2.153-0.815-2.153-1.95v-0.495c-1.077,1.426-2.59,2.502-4.365,2.502
			C94.463,49.635,92.601,47.715,92.601,44.572z M102.582,41.982c0-2.183-1.164-3.667-3.375-3.667c-2.938,0-4.976,3.055-4.976,6.227
			c0,2.27,1.106,3.725,3.201,3.725C100.603,48.268,102.582,44.717,102.582,41.982z"/>
		<path fill="#FFFFFF" d="M110.32,38.52h-2.328l0.349-1.338h3.754l-0.815,3.317c1.63-2.24,2.997-3.55,4.132-3.55
			c0.96,0,1.483,0.553,1.483,1.28c0,0.786-0.64,1.426-1.367,1.426c-0.669,0-1.135-0.407-1.28-0.989
			c-0.989,0.582-3.114,2.502-3.812,5.383l-1.338,5.354h-1.513L110.32,38.52z"/>
		<path fill="#FFFFFF" d="M117.854,43.699c-0.028,0.262-0.028,0.523-0.028,0.786c0,2.531,2.065,3.812,4.132,3.812
			c1.426,0,2.444-0.291,4.016-1.135l-0.35,1.571c-1.28,0.64-2.327,0.902-3.928,0.902c-2.823,0-5.383-1.833-5.383-5.122
			c0-4.132,3.23-7.565,6.838-7.565c2.764,0,4.451,1.746,4.451,4.335c0,0.757-0.174,1.542-0.494,2.416H117.854z M118.146,42.418
			h7.799c0.146-0.436,0.232-0.931,0.232-1.396c0-1.368-0.931-2.706-3.143-2.706C120.881,38.316,118.902,40.062,118.146,42.418z"/>
		<path fill="#FFFFFF" d="M133.886,44.572c0-4.161,3.026-7.624,6.547-7.624c2.212,0,3.667,1.222,4.016,3.172l0.728-3.084h1.513
			l-2.27,9.312c-0.116,0.465-0.203,0.931-0.203,1.164c0,0.582,0.378,0.96,0.901,0.96c0.641,0,1.136-0.582,1.688-1.92l0.901,0.291
			c-0.582,1.717-1.454,2.735-2.793,2.735c-1.28,0-2.153-0.815-2.153-1.95v-0.495c-1.077,1.426-2.59,2.502-4.365,2.502
			C135.748,49.635,133.886,47.715,133.886,44.572z M143.866,41.982c0-2.183-1.164-3.667-3.375-3.667
			c-2.939,0-4.977,3.055-4.977,6.227c0,2.27,1.106,3.725,3.201,3.725C141.888,48.268,143.866,44.717,143.866,41.982z"/>
	</g>
</g>
</svg>
