<?xml version="1.0" encoding="utf-8"?>
<!-- Generator: Adobe Illustrator 22.1.0, SVG Export Plug-In . SVG Version: 6.00 Build 0)  -->
<svg version="1.1" id="Layer_1" xmlns="http://www.w3.org/2000/svg" xmlns:xlink="http://www.w3.org/1999/xlink" x="0px" y="0px"
	 viewBox="0 0 1920 10" style="enable-background:new 0 0 1920 10;" xml:space="preserve">
<style type="text/css">
	.st0{fill:#E53527;}
	.st1{fill:#F6A420;}
	.st2{fill:#FFE100;}
	.st3{fill:#86BD45;}
	.st4{fill:#3FBDEE;}
	.st5{fill:#3B4696;}
	.st6{fill:#711F8E;}
</style>
<g>
	<polygon class="st0" points="0,10 274.5,10 274.5,0 0,0 0,10 	"/>
	<polygon class="st1" points="274.5,10 548.2,10 548.2,0 274.5,0 274.5,10 	"/>
	<polygon class="st2" points="548.2,10 822.7,10 822.7,0 548.2,0 548.2,10 	"/>
	<polygon class="st3" points="822.7,10 1097.3,10 1097.3,0 822.7,0 822.7,10 	"/>
	<polygon class="st4" points="1097.3,10 1371.8,10 1371.8,0 1097.3,0 1097.3,10 	"/>
	<polygon class="st5" points="1371.8,10 1646.3,10 1646.3,0 1371.8,0 1371.8,10 	"/>
	<polygon class="st6" points="1646.3,10 1920,10 1920,0 1646.3,0 1646.3,10 	"/>
</g>
</svg>
