<?xml version="1.0" encoding="utf-8"?>
<!-- Generator: Adobe Illustrator 21.1.0, SVG Export Plug-In . SVG Version: 6.00 Build 0)  -->
<svg version="1.1" id="Layer_1" xmlns="http://www.w3.org/2000/svg" xmlns:xlink="http://www.w3.org/1999/xlink" x="0px" y="0px"
	 viewBox="0 0 2958.6 1474.6" style="enable-background:new 0 0 2958.6 1474.6;" xml:space="preserve">
<style type="text/css">
	.st0{opacity:0.3;}
	.st1{opacity:0.3;fill:#ffffff;enable-background:new    ;}
</style>
<title>sunburst_svg</title>
<g id="Logo" class="st0">
	<polygon class="st1" points="2469.3,2585.6 1607.8,1648.6 2313.7,2707.8 1584.9,1664.3 2143.3,2808 1560.1,1676.7 1961.1,2884.7 
		1533.8,1685.7 1770.2,2936.4 1506.6,1691.2 1574.2,2962.2 1478.9,1693 1376.5,2961.7 1451.2,1691 1180.6,2934.8 1424,1685.4 
		990,2882 1397.8,1676.3 808.2,2804.3 1373,1663.7 638.4,2703.1 1350.2,1647.9 483.5,2580.1 1329.7,1629.2 346.5,2437.6 
		1311.8,1608 229.6,2278.1 1296.9,1584.5 135.1,2104.4 1285.3,1559.3 64.6,1919.7 1277.1,1532.8 19.3,1727.3 1272.6,1505.4 
		0,1530.5 1271.7,1477.6 7.2,1332.9 1274.6,1450 40.6,1138 1281.1,1423 99.7,949.3 1291.2,1397.1 183.4,770.2 1304.6,1372.8 
		290.3,603.8 1321.1,1350.5 418.4,453.2 1340.5,1330.6 565.4,321 1362.3,1313.5 728.7,209.5 1386.2,1299.4 905.4,120.8 
		1411.8,1288.6 1092.4,56.5 1438.6,1281.3 1286.2,17.7 1466.1,1277.7 1483.6,5 1493.9,1277.8 1680.8,18.8 1521.4,1281.6 
		1874.5,58.7 1548.2,1289 2061.1,124.1 1573.7,1299.9 2237.3,213.7 1597.6,1314.1 2400,326.1 1619.3,1331.4 2546.3,459.1 
		1638.5,1351.4 2673.5,610.5 1654.9,1373.8 2779.4,777.4 1668.2,1398.2 2862.2,957 1678.1,1424.1 2920.2,1146 1684.5,1451.1 
		2952.6,1341.1 1687.2,1478.8 2958.6,1538.7 1686.2,1506.5 2938.3,1735.4 1681.5,1533.9 2891.9,1927.6 1673.2,1560.4 2820.3,2111.9 
		1661.4,1585.5 2724.8,2285 1646.4,1608.9 2607.1,2443.9 1628.4,1630 	"/>
</g>
</svg>
