<?xml version="1.0" encoding="utf-8"?>
<!-- Generator: Adobe Illustrator 21.1.0, SVG Export Plug-In . SVG Version: 6.00 Build 0)  -->
<svg version="1.1" id="Layer_1" xmlns="http://www.w3.org/2000/svg" xmlns:xlink="http://www.w3.org/1999/xlink" x="0px" y="0px"
	 viewBox="0 0 1920 658.6" style="enable-background:new 0 0 1920 658.6;" xml:space="preserve">
<style type="text/css">
	.st0{fill:none;}
	.st1{fill:#9ECC64;}
	.st2{fill:#FFA57F;}
	.st3{fill:#FFE266;}
	.st4{fill:#E0E086;}
	.st5{fill:#76C2FF;}
	.st6{fill:#8E2BFF;}
	.st7{fill:#D71FF4;}
	.st8{fill:#FF3066;}
	.st9{fill:#85BC25;}
	.st10{fill:#4B6B19;}
</style>
<title>terrain_svg</title>
<path class="st0" d="M0,590.2v34h6.5C4.1,612.6,1.9,601.2,0,590.2z"/>
<path class="st1" d="M610.6,549.6c92-3.6,194.4-7.7,325.3-29.7c166.2-28,164.7-48.9,317.8-75.1c209.8-35.8,243-1.6,383.1-39.3
	c182.5-49.1,302.9-154.7,287.9-169.3c-0.2-0.2-0.4-0.4-0.7-0.6c-4.4-2.9-17-2.2-34.7,1.1c-47.6,8.9-132.7,36.3-198.1,61.2
	c-98.7,37.4-175.7,81.3-285.5,76.2c-2.4-0.1-1.6-0.1-7.7-0.4c-104.9-5.8-245.5-13.6-357.8,23.4c-12.5,4.1-42.2,16.7-101.5,41.7
	c-67.9,28.7-67,29.9-83.3,34.2c-51.1,13.5-100.8,12.2-166.4,10.5c-65.7-1.7-88.7-7.7-127.8,1.1c-24.8,5.6-42.4,14.1-52.7,19.9
	c-4.5,2.5-7.7,4.6-9.5,5.7c-0.3,0.2-0.7,0.4-1,0.6c-38.6,22.3-158.4,35.1-498,1.6v1c63.4,10.5,127.6,19,192.2,25.2
	C249.1,544.2,405,557.6,610.6,549.6z"/>
<path class="st2" d="M1822.6,502.4c-4.5-124.8-55.2-240.1-159.5-312.6c-77.6-54-173.6-78.7-267.6-76.7
	c-94,1.9-188.9,30.6-264.2,87.7c-101.2,76.7-147.1,194-146.5,318.9c-1.6,0-2.5,0.1-4.1,0.1c-0.7-124.2,44.4-241.5,144-319
	c76.7-59.7,174.2-89.6,270.8-91.6c96.6-2,195.2,23.9,274.3,80.4c102.7,73.3,152.5,188.8,157,312.8
	C1825.1,502.3,1824.3,502.4,1822.6,502.4z"/>
<path class="st3" d="M1826.7,502.3c-4.4-124.1-54.3-239.5-157-312.8c-79.1-56.5-177.7-82.3-274.3-80.4
	c-96.6,2-194.1,31.9-270.8,91.6c-99.6,77.5-144.6,194.9-144,319c-1.6,0-2.5,0.1-4.1,0.1c-0.7-124.5,44-242.2,143.4-320.6
	c77.7-61.3,177-91.9,275.3-94c96.7-2,195.4,23.7,275,79.7c105,74,156,191,160.5,317.3C1829.2,502.2,1828.4,502.3,1826.7,502.3z"/>
<path class="st4" d="M1830.8,502.2c-4.5-126.2-55.5-243.3-160.5-317.3c-79.6-56.1-178.2-81.7-275-79.7c-98.3,2-197.6,32.7-275.3,94
	c-99.4,78.4-144.1,196.1-143.4,320.6c-1.6,0-2.5,0.1-4.1,0.1c-0.7-128.4,46.6-249.3,150.7-328.2c77.6-58.9,175.3-88.4,272.2-90.4
	c96.8-2,195.7,23.5,275.6,79.1c107.2,74.6,159.5,193.4,164,321.7C1833.3,502.2,1832.5,502.2,1830.8,502.2z"/>
<path class="st5" d="M1835,502.1c-4.6-128.3-56.8-247.2-164-321.7c-80-55.6-178.8-81.1-275.6-79.1c-96.8,2-194.5,31.5-272.2,90.4
	c-104,78.9-151.4,199.8-150.7,328.2c-1.6,0-2.5,0.1-4.1,0.1c-0.7-128.7,46.3-250.1,150.1-329.8c78.7-60.4,178.1-90.7,276.7-92.7
	c98.6-2,199.2,24.1,280.3,81.3c107,75.4,159,194.8,163.6,323.4C1837.4,502.1,1836.6,502.1,1835,502.1z"/>
<path class="st6" d="M1839.1,502c-4.6-128.6-56.6-248-163.6-323.4c-81.1-57.2-181.7-83.3-280.3-81.3c-98.6,2-198.1,32.3-276.7,92.7
	C1014.7,269.9,967.6,391.2,968.4,520c-1.6,0-2.5,0.1-4.1,0.1c-0.7-129,46-250.9,149.6-331.4c79.7-62,181-93.1,281.3-95.1
	c100.3-2.1,202.8,24.8,285,83.5c106.8,76.2,158.5,196.1,163.1,325C1841.6,502,1840.7,502,1839.1,502z"/>
<path class="st7" d="M1843.2,502c-4.6-128.9-56.3-248.8-163.1-325c-82.2-58.7-184.7-85.6-285-83.5c-100.3,2.1-201.6,33.1-281.3,95.1
	C1010.3,269.2,963.5,391,964.2,520c-1.6,0-2.5,0.1-4.1,0.1c-0.6-105.2,28.5-207.6,99.8-287c53.9-60,125.8-101.4,202.9-123.7
	c150.2-43.4,326.3-17.4,447.1,85.6c91,77.7,133.2,189.1,137.4,306.8C1845.7,501.9,1844.9,501.9,1843.2,502z"/>
<path class="st8" d="M1818.5,502.5c-4.4-122.8-53.8-236.2-155.9-308.1c-77.3-54.4-173-79.3-266.9-77.4
	c-95.5,2-191.9,31.7-267.4,91.3c-96.7,76.2-139.8,190.3-139.2,311.3c-1.6,0-2.5,0.1-4.1,0.1c-0.6-124.9,45.2-242.2,146.5-318.9
	c75.4-57.1,170.2-85.8,264.2-87.7c94-1.9,190,22.8,267.6,76.7c104.3,72.5,155,187.8,159.5,312.6
	C1821,502.4,1820.1,502.4,1818.5,502.5z"/>
<path class="st9" d="M1920,249.2c-25.8,35.2-133.7,113.9-283.2,154.5c-140.1,38-173.3,3.5-383.1,39.6
	c-153.2,26.3-151.6,47.5-317.8,75.6C805,541,702.6,545.1,610.6,548.7c-205.6,8.1-361.5-5.4-418.4-11C127.6,531.5,63.4,523,0,512.4
	v122.9c1.9,7.5-2.4,15.3,0,23.3h1920V249.2z"/>
<path class="st10" d="M1920,429.1c-71.2-41.1-271.2,26.3-295,38.3c-75.9,38.4-81.6,63.4-159.5,92.1c-74.1,27.2-138,30-184,31.6
	c-113.6,4-125.8-21-232.5-19.5c-122,1.7-223,36.1-222,43.5c0.7,4.9,47.4-2.3,130.5,0c76.7,2.1,112.7,10.3,171,16.5
	c114,12.1,203.8,4.8,262.5,0c167.2-13.6,157.7-42.9,277.5-44.3c147.3-1.7,208.9,42,251.4,0V429.1z"/>
</svg>
